<?xml version="1.0" encoding="UTF-8"?>
<svg version="1.1" xmlns="http://www.w3.org/2000/svg" width="577" height="433">
<path d="M0 0 C13.86 0 27.72 0 42 0 C42.04522153 21.81034543 42.08203259 43.62065265 42.10362434 65.43103313 C42.11391814 75.5589383 42.12794207 85.68681218 42.15087891 95.81469727 C42.170871 104.64655845 42.18373021 113.47839696 42.18817699 122.31028014 C42.19077454 126.98268143 42.19684007 131.65501788 42.21146011 136.3273983 C42.22513616 140.73420818 42.22920259 145.14092711 42.22621536 149.5477562 C42.22676108 151.15647057 42.23067838 152.76518831 42.23841095 154.3738842 C42.29523654 166.81682846 41.62798194 178.91218886 37.25 190.6875 C36.85530518 191.76946655 36.85530518 191.76946655 36.45263672 192.87329102 C28.66702741 213.51512534 12.12872361 229.07900497 -7.54296875 238.5234375 C-11.58353239 240.24923756 -15.65626887 241.76612224 -19.8125 243.1875 C-20.49828125 243.4254126 -21.1840625 243.6633252 -21.890625 243.90844727 C-36.24333612 248.60764339 -49.82792928 249.42809502 -64.79663086 249.34057617 C-66.84807828 249.33972816 -68.89952661 249.34020843 -70.95097351 249.34190369 C-76.47478394 249.34275828 -81.9983957 249.32522002 -87.52216029 249.30418181 C-93.31168384 249.28532493 -99.10121281 249.28365751 -104.89076233 249.28010559 C-115.83384022 249.27081147 -126.77682732 249.24623356 -137.71986538 249.21605712 C-150.18671051 249.18243084 -162.65356016 249.16600647 -175.12043941 249.15097082 C-200.74700978 249.11968148 -226.37349978 249.06697257 -252 249 C-252.00498087 246.28710708 -252.00861103 243.57422343 -252.01147461 240.86132812 C-252.01301292 240.09894836 -252.01455124 239.3365686 -252.01613617 238.55108643 C-252.02063826 232.85660721 -251.88589582 227.18597431 -251.5625 221.5 C-251.52318359 220.67886719 -251.48386719 219.85773438 -251.44335938 219.01171875 C-251.12614346 213.12614346 -251.12614346 213.12614346 -250 212 C-247.71594726 211.90508821 -245.42888863 211.88259318 -243.14286804 211.88647461 C-242.41700196 211.88632575 -241.69113587 211.88617689 -240.94327384 211.88602352 C-238.49169481 211.88672231 -236.04018918 211.89458454 -233.58862305 211.90234375 C-231.83769778 211.90426165 -230.08677196 211.90572605 -228.33584595 211.9067688 C-224.55225815 211.90993991 -220.76869243 211.91622452 -216.98511314 211.92483521 C-210.98526042 211.9383431 -204.98541511 211.94425029 -198.98554993 211.94897461 C-185.14009043 211.96104026 -171.29464975 211.98295659 -157.44920349 212.00520325 C-144.81149246 212.02544537 -132.17378837 212.04352609 -119.53606445 212.05341816 C-113.59141335 212.05835923 -107.64679734 212.06815915 -101.70216024 212.08184814 C-97.96894803 212.08940212 -94.23574036 212.0926423 -90.50252151 212.0948143 C-88.79354506 212.09665914 -87.08456928 212.10020363 -85.37560081 212.10574722 C-76.35690329 212.134034 -67.35540598 212.01131383 -58.34407043 211.62670898 C-57.12761181 211.58256536 -57.12761181 211.58256536 -55.88657826 211.53752995 C-41.53414093 210.839158 -24.71092949 204.68656207 -14 195 C-2.60217782 180.1662439 -0.67325067 164.59923799 -0.78881836 146.41259766 C-0.79102484 144.88363749 -0.79232616 143.3546758 -0.7928009 141.82571411 C-0.79571287 138.55845446 -0.8048854 135.29129675 -0.81910515 132.02406693 C-0.84153403 126.85469972 -0.8494875 121.68536926 -0.85560608 116.51596069 C-0.86694472 108.34239083 -0.88764405 100.16887678 -0.91250378 91.99533784 C-0.95697903 77.34545776 -0.99005074 62.69555776 -1.01274782 48.04562795 C-1.02113832 42.90910272 -1.03514439 37.77263253 -1.05372036 32.63613439 C-1.06437734 29.44334383 -1.07095167 26.25055378 -1.07652092 23.0577507 C-1.07998486 21.57992788 -1.08519175 20.10210794 -1.09228897 18.6242981 C-1.1017772 16.60392885 -1.10444706 14.58353103 -1.10679626 12.56314087 C-1.11031569 11.43385981 -1.11383512 10.30457874 -1.1174612 9.14107704 C-1 6 -1 6 0 0 Z " fill="#E8DBD3" transform="translate(394,106)"/>
<path d="M0 0 C10.85803012 -0.0930928 21.71596372 -0.16396308 32.57431316 -0.20724869 C37.61747626 -0.22803419 42.66036429 -0.25618478 47.70336914 -0.30175781 C52.57931496 -0.34554035 57.45499788 -0.36920489 62.33112526 -0.37950897 C64.18207748 -0.38684262 66.03301696 -0.40116184 67.88385582 -0.42292023 C78.65473746 -0.54439061 87.82871355 -0.00757839 98 4 C99.06615036 4.3888739 100.13230072 4.7777478 101.23075867 5.17840576 C108.738018 7.95797212 114.76062588 12.04201393 121 17 C122.26070312 17.96486328 122.26070312 17.96486328 123.546875 18.94921875 C135.65826138 29.07418348 145.21727399 47.03817042 147.36694336 62.66796875 C148.01362634 70.70298705 148.15484461 78.69094473 148.125 86.75 C148.12311676 87.41898315 148.12123352 88.08796631 148.11929321 88.77722168 C148.08927202 97.93681013 147.98504987 107.09484486 147.6875 116.25 C147.66510254 117.18166992 147.64270508 118.11333984 147.61962891 119.07324219 C147.24137603 128.51073695 144.86910019 136.99199651 140.5625 145.375 C139.98628906 146.51710937 139.41007813 147.65921875 138.81640625 148.8359375 C137.09890736 151.82770976 135.16393507 154.32609297 133 157 C132.67 157.99 132.34 158.98 132 160 C130.0625 162.1875 130.0625 162.1875 128 164 C127.34 164 126.68 164 126 164 C125.67 164.99 125.34 165.98 125 167 C124.34 167 123.68 167 123 167 C122.67 167.99 122.34 168.98 122 170 C117.39890715 174.21675335 111.40310435 179 105 179 C105 179.66 105 180.32 105 181 C103.54418264 181.6102043 102.08514232 182.21271846 100.625 182.8125 C99.81289062 183.14894531 99.00078125 183.48539063 98.1640625 183.83203125 C89.30791623 187.10115191 81.49488569 188.49936216 72.03125 188.73046875 C70.18061951 188.79068962 70.18061951 188.79068962 68.29260254 188.85212708 C65.68402746 188.93458758 63.07524468 189.01069519 60.46630859 189.08081055 C56.56685171 189.18570176 52.66832986 189.30871849 48.76953125 189.43554688 C36.23281278 189.82627513 23.69922566 190.07779769 11.15625 190.11328125 C10.04229858 190.11861374 8.92834717 190.12394623 7.78063965 190.12944031 C6.76828247 190.12837784 5.75592529 190.12731537 4.71289062 190.1262207 C3.82299438 190.12628616 2.93309814 190.12635162 2.01623535 190.12641907 C0 190 0 190 -1 189 C-1.09986679 187.39572476 -1.13080864 185.78706686 -1.1328125 184.1796875 C-1.13482666 183.17558838 -1.13684082 182.17148926 -1.13891602 181.13696289 C-1.13432373 180.06051514 -1.12973145 178.98406738 -1.125 177.875 C-1.12234131 176.79017334 -1.11968262 175.70534668 -1.11694336 174.58764648 C-0.97840589 150.97840589 -0.97840589 150.97840589 1 149 C13.86007932 147.21460495 27.11920406 147.92095697 40.0625 148 C68.53416119 149.5876878 68.53416119 149.5876878 94 139 C103.75972327 129.19231741 105.22917563 118.26625925 105.27856445 104.8371582 C105.26442505 103.03057739 105.26442505 103.03057739 105.25 101.1875 C105.24250732 99.92446045 105.23501465 98.6614209 105.22729492 97.36010742 C105.60377981 74.73246917 105.60377981 74.73246917 98 54 C98 53.34 98 52.68 98 52 C97.34 52 96.68 52 96 52 C94.33333333 50.33333333 92.66666667 48.66666667 91 47 C81.49490212 39.93907015 69.6930219 40.54509804 58.43359375 40.5234375 C56.74633045 40.50910652 55.05907875 40.49334578 53.37184143 40.47622681 C48.9615609 40.43463035 44.55135243 40.40945604 40.14093018 40.38873291 C33.0509406 40.35271711 25.96112777 40.29205902 18.87132454 40.23024368 C16.39561641 40.21112686 13.91995613 40.19942301 11.44419861 40.18881226 C9.93993013 40.17860862 8.43566267 40.16825142 6.93139648 40.15771484 C5.61364731 40.15121918 4.29589813 40.14472351 2.93821716 40.13803101 C0 40 0 40 -1 39 C-1.10033269 36.8873344 -1.13081502 34.77129577 -1.1328125 32.65625 C-1.13410156 31.3465625 -1.13539063 30.036875 -1.13671875 28.6875 C-1.13462402 27.99914062 -1.1325293 27.31078125 -1.13037109 26.6015625 C-1.12509298 24.53638101 -1.13027747 22.47142404 -1.13671875 20.40625 C-1.13605662 19.0729162 -1.13477268 17.73958253 -1.1328125 16.40625 C-1.13168457 15.20291016 -1.13055664 13.99957031 -1.12939453 12.75976562 C-1.03026041 9.87926482 -0.82131978 7.12106007 -0.49191284 4.26501465 C-0.40026793 3.46362816 -0.30862301 2.66224167 -0.21420097 1.83657074 C-0.14351465 1.2305024 -0.07282833 0.62443405 0 0 Z " fill="#DACDC4" transform="translate(143,106)"/>
<path d="M0 0 C1.38856201 -0.00676758 1.38856201 -0.00676758 2.80517578 -0.01367188 C18.70786277 0.02036277 18.70786277 0.02036277 20.8125 2.125 C20.91533461 3.85821963 20.94771058 5.59564944 20.95294189 7.33190918 C20.95865204 8.46145523 20.96436218 9.59100128 20.97024536 10.754776 C20.97192215 12.63089821 20.97192215 12.63089821 20.97363281 14.54492188 C20.98108017 16.5085392 20.98108017 16.5085392 20.98867798 18.51182556 C21.0018373 22.11816416 21.00825618 25.72448409 21.01268864 29.33084297 C21.01561951 31.58951696 21.0197248 33.84818587 21.02419281 36.1068573 C21.03788979 43.18848157 21.04754022 50.27009422 21.0513947 57.35173082 C21.05585221 65.4955974 21.07328234 73.63929418 21.1023953 81.78310919 C21.1241531 88.09162653 21.13410677 94.40009667 21.13543582 100.70865107 C21.13647575 104.467938 21.1422051 108.22706585 21.16025543 111.98631287 C21.338178 151.30020304 21.338178 151.30020304 14.125 164.6875 C13.80466797 165.32623047 13.48433594 165.96496094 13.15429688 166.62304688 C12.39327976 168.13372263 11.60614515 169.63120762 10.8125 171.125 C10.1525 171.125 9.4925 171.125 8.8125 171.125 C8.55855469 171.8675 8.30460937 172.61 8.04296875 173.375 C4.53140743 181.22306086 -4.02047347 187.00217517 -11.5 190.8125 C-20.41896042 193.98704523 -28.59913955 194.33136055 -38 193.8125 C-39.65805664 193.73999023 -39.65805664 193.73999023 -41.34960938 193.66601562 C-46.06949155 193.44071611 -50.56475298 193.14825201 -55.1875 192.125 C-53.76801647 187.66376604 -51.31994242 184.79839148 -48.125 181.5 C-47.12703687 180.43403873 -46.13097368 179.36629586 -45.13671875 178.296875 C-44.63962402 177.76384766 -44.1425293 177.23082031 -43.63037109 176.68164062 C-30.16944543 162.15932894 -23.82444491 148.4029881 -23.97631836 128.54370117 C-23.9776326 127.31320541 -23.97894684 126.08270966 -23.9803009 124.81492615 C-23.984549 122.15486979 -23.99240165 119.49512679 -24.00660515 116.83513451 C-24.02904612 112.61790022 -24.0369907 108.40071094 -24.04310608 104.1834259 C-24.05445545 97.50436825 -24.07515323 90.82537866 -24.10000378 84.14635879 C-24.14436887 72.20568266 -24.17766266 60.26498422 -24.20024782 48.32424718 C-24.20858685 44.14359083 -24.22254137 39.96300389 -24.24122036 35.78238142 C-24.2544967 32.55309276 -24.26127349 29.32378777 -24.26928711 26.09448242 C-24.27602448 24.95487061 -24.28276184 23.81525879 -24.28970337 22.64111328 C-24.29983296 15.41979185 -23.9026583 8.31068836 -23.1875 1.125 C-15.44285192 0.26916839 -7.78824235 0.01565738 0 0 Z " fill="#D8CBC3" transform="translate(336.1875,104.875)"/>
<path d="M0 0 C1.93791053 0.00688309 3.87582265 0.01333045 5.81373596 0.01937866 C11.03823779 0.03717087 16.26268601 0.06173879 21.48715067 0.08813882 C25.85423399 0.10972891 30.22132823 0.12833428 34.58842456 0.14707059 C44.88270848 0.19143519 55.17695231 0.24171249 65.47119141 0.29541016 C76.09424103 0.35069157 86.71729693 0.39461278 97.34041893 0.43326122 C106.47190116 0.46695346 115.60332797 0.50826006 124.73474967 0.55558652 C130.18461212 0.58371495 135.63444646 0.60877444 141.0843544 0.6262455 C146.1980426 0.64291648 151.31159483 0.66903855 156.42519951 0.70255661 C158.30417565 0.71325402 160.18317467 0.72054028 162.06217766 0.72422218 C164.62014494 0.72976032 167.17774456 0.74743251 169.73562622 0.76826477 C170.85899232 0.76638585 170.85899232 0.76638585 172.00505269 0.76446897 C175.71428884 0.80828571 177.3175183 0.93995035 180.48779297 3.0534668 C180.77996166 5.58393503 180.88412437 7.8663956 180.85107422 10.3972168 C180.85182198 11.48456116 180.85182198 11.48456116 180.85258484 12.59387207 C180.85024338 14.12714376 180.84051052 15.66041921 180.82397461 17.19360352 C180.8003842 19.54437524 180.80341218 21.89401309 180.81005859 24.24487305 C180.80448182 25.73316108 180.79737194 27.22144432 180.78857422 28.7097168 C180.78948563 29.41495483 180.79039703 30.12019287 180.79133606 30.84680176 C180.71882518 35.82243458 180.71882518 35.82243458 178.48779297 38.0534668 C175.97106934 38.30070496 175.97106934 38.30070496 172.70458984 38.29638672 C170.83440437 38.30094124 170.83440437 38.30094124 168.92643738 38.30558777 C167.51980467 38.29861499 166.11317322 38.29138723 164.70654297 38.28393555 C163.20376103 38.28307333 161.70097846 38.28300129 160.19819641 38.28364563 C156.01401164 38.28246714 151.82996297 38.26781689 147.6458168 38.2507019 C144.0891116 38.23767534 140.53240913 38.23210964 136.97568607 38.22626305 C79.81265318 38.12623042 22.64849245 37.54984871 -34.51220703 37.0534668 C-34.56180813 32.73015901 -34.59802143 28.40700395 -34.62207031 24.08349609 C-34.63210055 22.61406568 -34.64572804 21.14465509 -34.66308594 19.67529297 C-34.68746602 17.55781143 -34.69871989 15.44059481 -34.70751953 13.32299805 C-34.71799316 12.05045166 -34.7284668 10.77790527 -34.73925781 9.46679688 C-34.51907285 6.15668301 -33.80819522 4.05961938 -32.51220703 1.0534668 C-21.65690825 -0.03756128 -10.89708798 -0.06032889 0 0 Z " fill="#D8CAC1" transform="translate(176.51220703125,45.946533203125)"/>
<path d="M0 0 C0.84997559 0.04302246 1.69995117 0.08604492 2.57568359 0.13037109 C8.68109668 0.49359668 8.68109668 0.49359668 9.8125 1.625 C9.91311647 4.59206135 9.94864878 7.53588384 9.94189453 10.50341797 C9.94364685 11.43508789 9.94539917 12.36675781 9.94720459 13.32666016 C9.95162563 16.42352125 9.94868376 19.52032577 9.9453125 22.6171875 C9.94598558 24.76091523 9.94695564 26.90464289 9.94821167 29.04837036 C9.94968908 33.54934412 9.94753314 38.05029807 9.94287109 42.55126953 C9.93718064 48.32748941 9.94044821 54.10366275 9.94644356 59.87988091 C9.95005386 64.30986889 9.9489083 68.73984582 9.94631577 73.16983414 C9.94564744 75.29974498 9.94647163 77.42965682 9.94879532 79.5595665 C9.95132874 82.5356691 9.94747111 85.51169601 9.94189453 88.48779297 C9.94391876 89.37310699 9.94594299 90.25842102 9.94802856 91.17056274 C9.94520874 91.98100037 9.94238892 92.79143799 9.93948364 93.62643433 C9.93910662 94.33030714 9.93872959 95.03417995 9.93834114 95.75938225 C9.8125 97.625 9.8125 97.625 8.8125 100.625 C-1.7475 100.625 -12.3075 100.625 -23.1875 100.625 C-23.21004897 87.73427433 -23.22841389 74.84356166 -23.23931217 61.95282078 C-23.24454151 55.96780734 -23.25164008 49.98280804 -23.26293945 43.99780273 C-23.27376653 38.22716571 -23.27977645 32.45654232 -23.28237724 26.68589592 C-23.28423182 24.47897057 -23.28785304 22.272046 -23.29323006 20.06512642 C-23.3004381 16.98553959 -23.30149104 13.90600986 -23.30102539 10.82641602 C-23.30462067 9.90428818 -23.30821594 8.98216034 -23.31192017 8.03208923 C-23.30155216 1.73905216 -23.30155216 1.73905216 -22.1875 0.625 C-14.82544681 -0.6346669 -7.42263572 -0.38347263 0 0 Z " fill="#D2C4BA" transform="translate(167.1875,149.375)"/>
<path d="M0 0 C0.94838583 3.02703969 1.08720179 3.77715099 -0.125 6.875 C-1.58204415 9.30340692 -2.90066472 11.10570638 -4.75 13.1875 C-5.86375 14.5796875 -5.86375 14.5796875 -7 16 C-6.67 16.99 -6.34 17.98 -6 19 C-5.01 19 -4.02 19 -3 19 C-3 19.66 -3 20.32 -3 21 C-4.28913487 21.67154933 -5.58140204 22.33708859 -6.875 23 C-7.59429687 23.37125 -8.31359375 23.7425 -9.0546875 24.125 C-11 25 -11 25 -13 25 C-13 25.66 -13 26.32 -13 27 C-14.32 27 -15.64 27 -17 27 C-17 27.66 -17 28.32 -17 29 C-40.0987109 38.60009715 -66.51660468 36.40912828 -90.99140692 36.30418181 C-96.17363122 36.28521241 -101.35586279 36.28364883 -106.53811646 36.28010559 C-116.31578153 36.27084386 -126.09334395 36.24631108 -135.87096417 36.21605712 C-147.01755971 36.18232838 -158.16416059 36.16598103 -169.31079459 36.15097082 C-192.20725488 36.11975511 -215.10361729 36.06649467 -238 36 C-238 43.92 -238 51.84 -238 60 C-234.04 60 -230.08 60 -226 60 C-222.72930717 61.47507954 -222.72930717 61.47507954 -220 63 C-217.36194459 63.28224289 -214.96350936 63.41709985 -212.33108521 63.39872742 C-211.57866857 63.40537424 -210.82625194 63.41202107 -210.05103481 63.41886932 C-207.54055721 63.43745859 -205.03055792 63.43489683 -202.52001953 63.43237305 C-200.71619496 63.4413927 -198.91237652 63.45172043 -197.10856628 63.46325684 C-192.21856547 63.490829 -187.32868094 63.50011167 -182.43861246 63.50611091 C-177.32563578 63.51549397 -172.21274599 63.54169734 -167.099823 63.56611633 C-157.42085618 63.60978681 -147.74190622 63.63833044 -138.06287086 63.66143972 C-127.04233518 63.68848841 -116.02188688 63.73240015 -105.00141358 63.77772844 C-82.3343231 63.8705826 -59.66720521 63.94225985 -37 64 C-37 64.33 -37 64.66 -37 65 C-105.64 65 -174.28 65 -245 65 C-245 45.19216418 -245 45.19216418 -244.5625 37.5 C-244.52318359 36.67886719 -244.48386719 35.85773438 -244.44335938 35.01171875 C-244.12614346 29.12614346 -244.12614346 29.12614346 -243 28 C-240.71594726 27.90508821 -238.42888863 27.88259318 -236.14286804 27.88647461 C-235.41700196 27.88632575 -234.69113587 27.88617689 -233.94327384 27.88602352 C-231.49169481 27.88672231 -229.04018918 27.89458454 -226.58862305 27.90234375 C-224.83769778 27.90426165 -223.08677196 27.90572605 -221.33584595 27.9067688 C-217.55225815 27.90993991 -213.76869243 27.91622452 -209.98511314 27.92483521 C-203.98526042 27.9383431 -197.98541511 27.94425029 -191.98554993 27.94897461 C-178.14009043 27.96104026 -164.29464975 27.98295659 -150.44920349 28.00520325 C-137.81149246 28.02544537 -125.17378837 28.04352609 -112.53606445 28.05341816 C-106.59141335 28.05835923 -100.64679734 28.06815915 -94.70216024 28.08184814 C-90.96894803 28.08940212 -87.23574036 28.0926423 -83.50252151 28.0948143 C-81.79354506 28.09665914 -80.08456928 28.10020363 -78.37560081 28.10574722 C-69.35690329 28.134034 -60.35540598 28.01131383 -51.34407043 27.62670898 C-50.12761181 27.58256536 -50.12761181 27.58256536 -48.88657826 27.53752995 C-34.59725863 26.84222923 -17.61882188 20.71622202 -7 11 C-4.94178415 8.2277729 -4.94178415 8.2277729 -3.1875 5.25 C-2.58292969 4.26515625 -1.97835937 3.2803125 -1.35546875 2.265625 C-0.90816406 1.51796875 -0.46085938 0.7703125 0 0 Z " fill="#D1CAC6" transform="translate(387,290)"/>
<path d="M0 0 C0 0.66 0 1.32 0 2 C2.64 2 5.28 2 8 2 C8.02337494 20.13283562 8.04100176 38.26566731 8.05181217 56.39851475 C8.05696536 64.81817186 8.06398945 73.2378196 8.07543945 81.6574707 C8.08541614 88.99723614 8.09186054 96.33699479 8.09408849 103.67676681 C8.09539053 107.56200656 8.09844428 111.44722689 8.10573006 115.3324604 C8.11253736 118.99232885 8.11460739 122.65216996 8.11310768 126.31204414 C8.11351225 128.28952509 8.11888285 130.26700308 8.12442017 132.24447632 C8.11066305 144.12956631 8.11066305 144.12956631 7 149 C6.34 149.33 5.68 149.66 5 150 C4.97314905 147.52076199 4.95323453 145.0418116 4.9375 142.5625 C4.92912109 141.85544922 4.92074219 141.14839844 4.91210938 140.41992188 C4.90346412 138.61306441 4.94779989 136.80612397 5 135 C5.33 134.67 5.66 134.34 6 134 C6.09511266 131.35261911 6.12555635 128.73140999 6.11352539 126.08374023 C6.11367142 125.25454071 6.11381744 124.42534119 6.1139679 123.5710144 C6.11326851 120.81684802 6.10547493 118.06274839 6.09765625 115.30859375 C6.09579216 113.40430234 6.09436822 111.50001045 6.09336853 109.59571838 C6.08954263 104.57332037 6.07971173 99.55095108 6.06866455 94.52856445 C6.05845198 89.4077188 6.05387124 84.28686852 6.04882812 79.16601562 C6.03808953 69.11066443 6.02101224 59.0553346 6 49 C5.34 49 4.68 49 4 49 C3.97107143 45.04168191 3.95322573 41.08339083 3.9375 37.125 C3.92912109 35.99707031 3.92074219 34.86914062 3.91210938 33.70703125 C3.90888672 32.63066406 3.90566406 31.55429688 3.90234375 30.4453125 C3.89710693 29.45031738 3.89187012 28.45532227 3.88647461 27.43017578 C4 25 4 25 5 23 C5.16774849 17.96754528 4.84311788 14.05870725 4 9 C-5.9 9 -15.8 9 -26 9 C-25.97905273 13.10711426 -25.95810547 17.21422852 -25.93652344 21.44580078 C-25.87010694 35.04833726 -25.8258018 48.65087144 -25.79275131 62.25352669 C-25.77218659 70.49706453 -25.74418356 78.74044801 -25.69824219 86.98388672 C-25.65818673 94.17466337 -25.63252301 101.36532813 -25.62364602 108.55621326 C-25.61846267 112.3585305 -25.60640965 116.16052785 -25.57707977 119.96274185 C-25.54961356 123.55297625 -25.54161672 127.14276377 -25.54756927 130.73309326 C-25.54597083 132.6556066 -25.52461328 134.57807303 -25.50231934 136.50045776 C-25.55239603 147.25043832 -27.34417754 158.0853612 -33.63671875 167.046875 C-35.87610563 170.25516565 -37.72955672 173.69769304 -39.66796875 177.09375 C-40.10753906 177.7228125 -40.54710937 178.351875 -41 179 C-41.66 179 -42.32 179 -43 179 C-43.12375 179.5775 -43.2475 180.155 -43.375 180.75 C-44.00648824 183.02335767 -44.88858191 184.9253529 -46 187 C-45.38125 186.814375 -44.7625 186.62875 -44.125 186.4375 C-42 186 -42 186 -40 187 C-40.33 187.66 -40.66 188.32 -41 189 C-42.65 189 -44.3 189 -46 189 C-46 189.66 -46 190.32 -46 191 C-51.94 191 -57.88 191 -64 191 C-61.25597819 186.42663031 -58.45850682 183.10881168 -54.83984375 179.28125 C-52.92855444 176.91141358 -52.10169255 174.8129281 -51 172 C-49.51953125 170.25390625 -49.51953125 170.25390625 -47.8125 168.5625 C-37.35456582 157.01063965 -34.67362971 143.48100787 -34.78881836 128.41870117 C-34.7901326 127.18820541 -34.79144684 125.95770966 -34.7928009 124.68992615 C-34.797049 122.02986979 -34.80490165 119.37012679 -34.81910515 116.71013451 C-34.84154612 112.49290022 -34.8494907 108.27571094 -34.85560608 104.0584259 C-34.86695545 97.37936825 -34.88765323 90.70037866 -34.91250378 84.02135879 C-34.95686887 72.08068266 -34.99016266 60.13998422 -35.01274782 48.19924718 C-35.02108685 44.01859083 -35.03504137 39.83800389 -35.05372036 35.65738142 C-35.0669967 32.42809276 -35.07377349 29.19878777 -35.08178711 25.96948242 C-35.08852448 24.82987061 -35.09526184 23.69025879 -35.10220337 22.51611328 C-35.11233296 15.29479185 -34.7151583 8.18568836 -34 1 C-22.67269834 -0.24912271 -11.38216291 -0.09875075 0 0 Z " fill="#F3ECE6" transform="translate(347,105)"/>
<path d="M0 0 C13.2 0 26.4 0 40 0 C40 53.79 40 107.58 40 163 C39.34 162.67 38.68 162.34 38 162 C37.98969254 161.07690033 37.97938507 160.15380066 37.96876526 159.20272827 C37.86935239 150.35291262 37.76668158 141.50314137 37.66066074 132.65340233 C37.60630688 128.10749401 37.55306315 123.56157926 37.50268555 119.015625 C37.29614697 100.44404908 37.02221143 81.89031034 36.33377075 63.32965088 C35.91379774 51.59249432 35.88613943 39.86815797 35.9375 28.125 C35.94254478 26.04557404 35.94710223 23.96614684 35.95117188 21.88671875 C35.96102553 16.92442044 35.98063281 11.9623054 36 7 C26.1 7 16.2 7 6 7 C6.04600342 11.67220703 6.09200684 16.34441406 6.1394043 21.15820312 C6.28947283 36.63261493 6.42239385 52.10713942 6.54658794 67.58177948 C6.62226726 76.95972903 6.70371397 86.33756023 6.79907227 95.71533203 C6.88223887 103.89561696 6.95424378 112.07591385 7.01323253 120.25641012 C7.04480291 124.58191877 7.08169884 128.9072244 7.13199425 133.2325592 C7.17930857 137.31676453 7.21152188 141.40082981 7.2329216 145.48525047 C7.24323259 146.97180581 7.25872256 148.45833737 7.28024101 149.94477272 C7.42593926 160.30141992 6.22836392 169.91833508 4 180 C3.34 180 2.68 180 2 180 C1.95875 180.94875 1.9175 181.8975 1.875 182.875 C0.7302345 190.71346375 -4.52427423 197.1367948 -10.38671875 202.13671875 C-10.91910156 202.42160156 -11.45148438 202.70648438 -12 203 C-12.99 202.67 -13.98 202.34 -15 202 C-15.86328125 200.12109375 -15.86328125 200.12109375 -16 198 C-14.85546875 196.47265625 -14.85546875 196.47265625 -13.1875 195.0625 C-8.54520763 190.75256574 -7.77513876 186.18498506 -6.5078125 180.16015625 C-5.91821696 177.65210754 -5.059694 175.34646529 -4 173 C-3.34 173 -2.68 173 -2 173 C-0.26328964 168.48853898 0.24776186 164.76163437 0.24050903 159.93850708 C0.24221788 159.25142729 0.24392673 158.56434749 0.24568737 157.8564471 C0.24896686 155.56711323 0.23800427 153.27807614 0.22705078 150.98876953 C0.22648633 149.34258532 0.22680388 147.6964006 0.22793579 146.05021667 C0.22850899 141.58992614 0.21675991 137.12974344 0.20278788 132.66947794 C0.19027514 128.00498916 0.18910959 123.34049784 0.18673706 118.67599487 C0.18052389 109.84697023 0.16411527 101.01799519 0.14403808 92.18899238 C0.12167402 82.13584712 0.11068437 72.08269948 0.10064721 62.02953553 C0.07974891 41.35298986 0.04307469 20.67651218 0 0 Z " fill="#F7F1EA" transform="translate(395,107)"/>
<path d="M0 0 C69.63 0 139.26 0 211 0 C211 11.00504935 210.68647612 22.01638212 210 33 C185.58 33 161.16 33 136 33 C136 32.67 136 32.34 136 32 C156.90032461 30.92304755 156.90032461 30.92304755 166.125 31 C175.01534996 31.06884121 183.57115433 30.42863237 192.25 28.5 C195.52456425 27.90462468 198.79662962 27.58839196 202.109375 27.28125 C204.00787258 27.19058268 204.00787258 27.19058268 205 26 C205.08651611 24.58429877 205.10704904 23.164405 205.09765625 21.74609375 C205.09443359 20.89208984 205.09121094 20.03808594 205.08789062 19.15820312 C205.07951172 18.26037109 205.07113281 17.36253906 205.0625 16.4375 C205.05573242 15.08495117 205.05573242 15.08495117 205.04882812 13.70507812 C205.03700223 11.46998366 205.01968245 9.23503507 205 7 C194.40287314 6.23900288 183.85957041 5.83884601 173.23168945 5.79467773 C171.72960159 5.78506105 170.22751621 5.77504902 168.72543335 5.76467896 C164.69358686 5.73796356 160.66172917 5.71675786 156.6298449 5.69667697 C152.36333333 5.67449605 148.09685379 5.64724297 143.83036804 5.62062073 C136.65637672 5.57655007 129.48237322 5.53575525 122.30834961 5.49731445 C112.2940162 5.44364679 102.27972624 5.38386394 92.26543486 5.32291877 C85.22741603 5.28031754 78.18938849 5.23918149 71.15135932 5.1983273 C69.4730349 5.18858462 67.79471067 5.17880859 66.11638665 5.16899753 C45.0772772 5.04629968 24.03951901 4.97314404 3 5 C3.66 12.26 4.32 19.52 5 27 C11.4411936 27.28604825 17.88241239 27.57129382 24.32373047 27.85449219 C26.51385552 27.95102484 28.70395999 28.0480254 30.89404297 28.14550781 C34.04649619 28.28574404 37.19902015 28.42428368 40.3515625 28.5625 C41.8144017 28.62812134 41.8144017 28.62812134 43.30679321 28.69506836 C44.22729462 28.73510986 45.14779602 28.77515137 46.09619141 28.81640625 C46.95077942 28.85523926 47.80536743 28.89407227 48.68585205 28.93408203 C50.63687193 28.98965638 52.59070997 28.92804401 54.54052734 28.83984375 C55.35215332 28.89269531 56.1637793 28.94554688 57 29 C57.66 29.99 58.32 30.98 59 32 C39.2 32.33 19.4 32.66 -1 33 C-1 21.99495065 -0.73204499 10.9806749 0 0 Z " fill="#F5EDE7" transform="translate(145,49)"/>
<path d="M0 0 C3.95728741 3.23228819 5.788653 7.3587287 6.43359375 12.3671875 C6.44180257 19.73870441 6.00416294 24.74349541 2 31 C1.34 31 0.68 31 0 31 C-0.33 31.99 -0.66 32.98 -1 34 C-1.66 34 -2.32 34 -3 34 C-3 34.66 -3 35.32 -3 36 C-15.24066511 41.51691949 -15.24066511 41.51691949 -21.9609375 39.375 C-28.927963 36.38531856 -33.22932373 31.08440383 -36.9375 24.625 C-38.74905513 18.44440014 -38.94423993 13.32125649 -36.5 7.3125 C-32.59444096 1.49541735 -26.86932577 -3.55547887 -20.1328125 -5.6953125 C-13.14249837 -6.6939288 -5.79843471 -3.76295647 0 0 Z " fill="#E4D8CF" transform="translate(429,48)"/>
<path d="M0 0 C19.14527166 -0.04010881 19.14527166 -0.04010881 27.3359375 -0.04882812 C32.91439775 -0.05479488 38.49284152 -0.06183707 44.07128906 -0.07543945 C48.57112305 -0.08634251 53.07093934 -0.09229251 57.57078552 -0.09487724 C59.2834857 -0.09671815 60.99618496 -0.10031291 62.70887756 -0.10573006 C65.11648618 -0.11303905 67.52402261 -0.11398681 69.93164062 -0.11352539 C70.63223602 -0.11712067 71.33283142 -0.12071594 72.05465698 -0.12442017 C76.80042375 -0.11464372 81.33010581 0.18904866 86 1 C86.495 1.99 86.495 1.99 87 3 C86.01 3 85.02 3 84 3 C84 4.32 84 5.64 84 7 C58.26 7 32.52 7 6 7 C5.67 15.25 5.34 23.5 5 32 C8.82207031 31.96519531 12.64414063 31.93039063 16.58203125 31.89453125 C20.34870662 31.87102972 24.11537334 31.85287366 27.88208008 31.83520508 C30.46838125 31.82026465 33.05465776 31.79990494 35.64086914 31.77368164 C73.73048034 31.39757899 73.73048034 31.39757899 87 38 C87.33 38.66 87.66 39.32 88 40 C84.44677321 40.86664068 82.31122065 41.09203573 78.76512146 40.04336548 C74.7865561 38.94085184 71.44215891 38.7228549 67.32055664 38.68115234 C66.58801666 38.67110672 65.85547668 38.6610611 65.10073853 38.65071106 C62.70388502 38.62007056 60.30714219 38.60289782 57.91015625 38.5859375 C56.23863281 38.5672104 54.56711868 38.54763585 52.89561462 38.5272522 C48.51453147 38.47608773 44.13341772 38.43637844 39.75219727 38.39910889 C34.48566502 38.35190275 29.21928273 38.29037256 23.95287323 38.23126221 C15.96864321 38.1432413 7.98443914 38.07334027 0 38 C0 25.46 0 12.92 0 0 Z " fill="#F6EFE8" transform="translate(144,107)"/>
<path d="M0 0 C1.32 0 2.64 0 4 0 C4 0.66 4 1.32 4 2 C3.34 2 2.68 2 2 2 C2 31.7 2 61.4 2 92 C3.98 91.505 3.98 91.505 6 91 C11.61 91 17.22 91 23 91 C23 61.96 23 32.92 23 3 C24.65 3 26.3 3 28 3 C28 34.02 28 65.04 28 97 C17.77 97 7.54 97 -3 97 C-3 65.98 -3 34.96 -3 3 C-2.01 3 -1.02 3 0 3 C0 2.01 0 1.02 0 0 Z " fill="#F1E9E4" transform="translate(148,152)"/>
<path d="M0 0 C1.93791053 0.00688309 3.87582265 0.01333045 5.81373596 0.01937866 C11.03823779 0.03717087 16.26268601 0.06173879 21.48715067 0.08813882 C25.85423399 0.10972891 30.22132823 0.12833428 34.58842456 0.14707059 C44.88270848 0.19143519 55.17695231 0.24171249 65.47119141 0.29541016 C76.09424103 0.35069157 86.71729693 0.39461278 97.34041893 0.43326122 C106.47190116 0.46695346 115.60332797 0.50826006 124.73474967 0.55558652 C130.18461212 0.58371495 135.63444646 0.60877444 141.0843544 0.6262455 C146.1980426 0.64291648 151.31159483 0.66903855 156.42519951 0.70255661 C158.30417565 0.71325402 160.18317467 0.72054028 162.06217766 0.72422218 C164.62014494 0.72976032 167.17774456 0.74743251 169.73562622 0.76826477 C170.85899232 0.76638585 170.85899232 0.76638585 172.00505269 0.76446897 C175.71428884 0.80828571 177.3175183 0.93995035 180.48779297 3.0534668 C180.77996166 5.58393503 180.88412437 7.8663956 180.85107422 10.3972168 C180.85182198 11.48456116 180.85182198 11.48456116 180.85258484 12.59387207 C180.85024338 14.12714376 180.84051052 15.66041921 180.82397461 17.19360352 C180.8003842 19.54437524 180.80341218 21.89401309 180.81005859 24.24487305 C180.80448182 25.73316108 180.79737194 27.22144432 180.78857422 28.7097168 C180.78948563 29.41495483 180.79039703 30.12019287 180.79133606 30.84680176 C180.71882518 35.82243458 180.71882518 35.82243458 178.48779297 38.0534668 C175.97106934 38.30070496 175.97106934 38.30070496 172.70458984 38.29638672 C170.83440437 38.30094124 170.83440437 38.30094124 168.92643738 38.30558777 C167.51980467 38.29861499 166.11317322 38.29138723 164.70654297 38.28393555 C163.20376103 38.28307333 161.70097846 38.28300129 160.19819641 38.28364563 C156.01401164 38.28246714 151.82996297 38.26781689 147.6458168 38.2507019 C144.0891116 38.23767534 140.53240913 38.23210964 136.97568607 38.22626305 C79.81265318 38.12623042 22.64849245 37.54984871 -34.51220703 37.0534668 C-34.56180813 32.73015901 -34.59802143 28.40700395 -34.62207031 24.08349609 C-34.63210055 22.61406568 -34.64572804 21.14465509 -34.66308594 19.67529297 C-34.68746602 17.55781143 -34.69871989 15.44059481 -34.70751953 13.32299805 C-34.71799316 12.05045166 -34.7284668 10.77790527 -34.73925781 9.46679688 C-34.51907285 6.15668301 -33.80819522 4.05961938 -32.51220703 1.0534668 C-21.65690825 -0.03756128 -10.89708798 -0.06032889 0 0 Z M-31.51220703 3.0534668 C-32.24425202 14.0341417 -32.51220703 25.04841745 -32.51220703 36.0534668 C37.11779297 36.0534668 106.74779297 36.0534668 178.48779297 36.0534668 C179.17426909 25.06984892 179.48779297 14.05851614 179.48779297 3.0534668 C109.85779297 3.0534668 40.22779297 3.0534668 -31.51220703 3.0534668 Z " fill="#7C7877" transform="translate(176.51220703125,45.946533203125)"/>
<path d="M0 0 C0.99 0.33 1.98 0.66 3 1 C3 1.66 3 2.32 3 3 C3.66 3 4.32 3 5 3 C9.1856543 13.04557033 8.16253901 25.07752666 8.125 35.75 C8.12411377 36.41532745 8.12322754 37.08065491 8.12231445 37.7661438 C8.10250792 50.52593339 7.68351167 63.25868809 7 76 C6.34 76 5.68 76 5 76 C5 76.66 5 77.32 5 78 C3.68 77.67 2.36 77.34 1 77 C1.00222061 76.31761765 1.00444122 75.63523529 1.00672913 74.93217468 C1.02881623 67.84354169 1.04392099 60.75491844 1.05493164 53.66625977 C1.059967 51.01912031 1.06679563 48.37198365 1.07543945 45.72485352 C1.08753979 41.92463493 1.09323622 38.12445305 1.09765625 34.32421875 C1.10281754 33.13664474 1.10797882 31.94907074 1.11329651 30.72550964 C1.11337204 29.62459488 1.11344757 28.52368011 1.11352539 27.3894043 C1.115746 26.41899704 1.11796661 25.44858978 1.12025452 24.44877625 C1.10336633 21.86124019 1.10336633 21.86124019 0 19 C-0.12781786 16.32605036 -0.04391871 13.67904143 0 11 C0.66 11 1.32 11 2 11 C1.67 9.9275 1.34 8.855 1 7.75 C0 4 0 4 0 0 Z " fill="#DBD2CD" transform="translate(283,157)"/>
<path d="M0 0 C1.31471568 0.28151087 2.62675767 0.57553339 3.9375 0.875 C4.66839844 1.03742188 5.39929688 1.19984375 6.15234375 1.3671875 C8 2 8 2 9 4 C9.721875 4.103125 10.44375 4.20625 11.1875 4.3125 C19.38139619 6.3154524 25.94677111 15.99373183 30.10302734 22.80859375 C36.12965525 33.44154386 36.12965525 33.44154386 35.8046875 37.34765625 C35 39 35 39 33 40 C32.67 40.99 32.34 41.98 32 43 C31.34 43 30.68 43 30 43 C28.66180502 40.3773768 27.3292849 37.75213401 26 35.125 C25.6184375 34.37863281 25.236875 33.63226563 24.84375 32.86328125 C24.4828125 32.14785156 24.121875 31.43242187 23.75 30.6953125 C23.41484375 30.03547363 23.0796875 29.37563477 22.734375 28.69580078 C22 27 22 27 22 25 C21.34 25 20.68 25 20 25 C18.66796875 23.35546875 18.66796875 23.35546875 17.1875 21.1875 C14.76693791 17.80941826 12.64757077 16.03834837 9 14 C9 13.01 9 12.02 9 11 C8.34 11 7.68 11 7 11 C7 10.34 7 9.68 7 9 C6.236875 8.773125 5.47375 8.54625 4.6875 8.3125 C1.42695432 6.72014048 0.4726862 5.27263601 -1 2 C-0.67 1.34 -0.34 0.68 0 0 Z " fill="#DBD3CF" transform="translate(249,117)"/>
<path d="M0 0 C0.84997559 0.04302246 1.69995117 0.08604492 2.57568359 0.13037109 C8.68109668 0.49359668 8.68109668 0.49359668 9.8125 1.625 C9.9077822 4.60798214 9.93802175 7.56776345 9.92602539 10.55102539 C9.92617142 11.48751419 9.92631744 12.42400299 9.9264679 13.38887024 C9.92576837 16.50015539 9.91797415 19.61138149 9.91015625 22.72265625 C9.90829221 24.87357043 9.90686824 27.02448503 9.90586853 29.17539978 C9.90204225 34.84881758 9.89221102 40.52220995 9.88116455 46.19561768 C9.8709528 51.98001766 9.86637142 57.76442173 9.86132812 63.54882812 C9.85058885 74.90756328 9.83351111 86.26627953 9.8125 97.625 C9.4825 97.625 9.1525 97.625 8.8125 97.625 C8.4825 70.235 8.1525 42.845 7.8125 14.625 C7.4825 14.625 7.1525 14.625 6.8125 14.625 C6.8125 11.655 6.8125 8.685 6.8125 5.625 C-1.1075 5.625 -9.0275 5.625 -17.1875 5.625 C-16.5275 5.295 -15.8675 4.965 -15.1875 4.625 C-15.1875 3.965 -15.1875 3.305 -15.1875 2.625 C-16.5075 2.625 -17.8275 2.625 -19.1875 2.625 C-19.1875 3.615 -19.1875 4.605 -19.1875 5.625 C-20.1775 5.625 -21.1675 5.625 -22.1875 5.625 C-22.1875 36.645 -22.1875 67.665 -22.1875 99.625 C-11.9575 99.625 -1.7275 99.625 8.8125 99.625 C8.8125 99.955 8.8125 100.285 8.8125 100.625 C-1.7475 100.625 -12.3075 100.625 -23.1875 100.625 C-23.21004897 87.73427433 -23.22841389 74.84356166 -23.23931217 61.95282078 C-23.24454151 55.96780734 -23.25164008 49.98280804 -23.26293945 43.99780273 C-23.27376653 38.22716571 -23.27977645 32.45654232 -23.28237724 26.68589592 C-23.28423182 24.47897057 -23.28785304 22.272046 -23.29323006 20.06512642 C-23.3004381 16.98553959 -23.30149104 13.90600986 -23.30102539 10.82641602 C-23.30462067 9.90428818 -23.30821594 8.98216034 -23.31192017 8.03208923 C-23.30155216 1.73905216 -23.30155216 1.73905216 -22.1875 0.625 C-14.82544681 -0.6346669 -7.42263572 -0.38347263 0 0 Z " fill="#86827E" transform="translate(167.1875,149.375)"/>
<path d="M0 0 C13.86 0 27.72 0 42 0 C42 15.18 42 30.36 42 46 C41.67 46 41.34 46 41 46 C41 31.15 41 16.3 41 1 C27.8 1 14.6 1 1 1 C1.05124023 6.06303467 1.10248047 11.12606934 1.15527344 16.3425293 C1.32138885 33.04633521 1.46558492 49.75027675 1.59840012 66.45437908 C1.67948605 76.58487321 1.76812746 86.71519633 1.87451172 96.84545898 C1.96720901 105.67422401 2.0457751 114.50298188 2.10732102 123.33202106 C2.14040918 128.00766897 2.18060733 132.68301343 2.2377243 137.35843468 C2.29125575 141.75862306 2.3258984 146.15855503 2.34602928 150.55901909 C2.35675366 152.1743764 2.37439167 153.78970481 2.39944649 155.40490341 C2.43262692 157.61054393 2.44092649 159.81494014 2.4430542 162.02079773 C2.45411572 163.25507854 2.46517723 164.48935934 2.47657394 165.76104259 C1.91430491 169.58241276 0.63559118 171.24214999 -2 174 C-1.92894547 173.31458822 -1.85789093 172.62917645 -1.78468323 171.92299461 C-0.98045576 163.41020148 -0.87045584 154.95359493 -0.90234375 146.41259766 C-0.90426748 144.88363697 -0.90572912 143.35467565 -0.9067688 141.82571411 C-0.90990677 138.55848618 -0.9161397 135.29128474 -0.92483521 132.02406693 C-0.93845365 126.85470026 -0.94427126 121.68534209 -0.94897461 116.51596069 C-0.96002847 105.55229547 -0.97958686 94.58865118 -1 83.625 C-1.02205131 71.76521199 -1.04260404 59.90543235 -1.05341816 48.04562795 C-1.05839155 42.90911156 -1.06823646 37.77263483 -1.08184814 32.63613439 C-1.08931457 29.44334054 -1.09262459 26.25055211 -1.0948143 23.0577507 C-1.09668365 21.57992986 -1.10027929 20.10211001 -1.10574722 18.6242981 C-1.11298663 16.60392366 -1.11341613 14.58352827 -1.11352539 12.56314087 C-1.115746 11.43385981 -1.11796661 10.30457874 -1.12025452 9.14107704 C-1 6 -1 6 0 0 Z " fill="#6B6A66" transform="translate(394,106)"/>
<path d="M0 0 C0.66 0 1.32 0 2 0 C2.66 6.93 3.32 13.86 4 21 C10.4411936 21.28604825 16.88241239 21.57129382 23.32373047 21.85449219 C25.51385552 21.95102484 27.70395999 22.0480254 29.89404297 22.14550781 C33.04649619 22.28574404 36.19902015 22.42428368 39.3515625 22.5625 C40.8144017 22.62812134 40.8144017 22.62812134 42.30679321 22.69506836 C43.22729462 22.73510986 44.14779602 22.77515137 45.09619141 22.81640625 C45.95077942 22.85523926 46.80536743 22.89407227 47.68585205 22.93408203 C49.63687193 22.98965638 51.59070997 22.92804401 53.54052734 22.83984375 C54.35215332 22.89269531 55.1637793 22.94554688 56 23 C56.66 23.99 57.32 24.98 58 26 C38.2 26.33 18.4 26.66 -2 27 C-2 2 -2 2 0 0 Z " fill="#EEE6E0" transform="translate(146,55)"/>
<path d="M0 0 C10.56 0 21.12 0 32 0 C34.25004241 7.87514845 34.25004241 7.87514845 34.24723816 12.65405273 C34.25143265 13.73057098 34.25562714 14.80708923 34.25994873 15.91622925 C34.25432922 17.07695953 34.24870972 18.23768982 34.24291992 19.43359375 C34.24481827 20.67182892 34.24671661 21.91006409 34.24867249 23.18582153 C34.25173315 26.56602649 34.24589409 29.9459848 34.23571944 33.32616043 C34.22689891 36.87295618 34.22869717 40.41974825 34.2290802 43.96655273 C34.22814524 49.92140921 34.21948433 55.87621455 34.20581055 61.83105469 C34.19008686 68.70375702 34.18481257 75.57640341 34.1855461 82.44912243 C34.18622301 89.78322577 34.17927386 97.11730771 34.1700995 104.45140457 C34.16797411 106.55719332 34.16725913 108.66297859 34.16686058 110.76876831 C34.16566402 114.70133418 34.1559304 118.63385416 34.14526367 122.56640625 C34.14571686 123.72713654 34.14617004 124.88786682 34.14663696 126.08377075 C34.10334792 137.0102925 34.10334792 137.0102925 33 142 C32.34 142.33 31.68 142.66 31 143 C30.97314905 140.52076199 30.95323453 138.0418116 30.9375 135.5625 C30.92912109 134.85544922 30.92074219 134.14839844 30.91210938 133.41992188 C30.90346412 131.61306441 30.94779989 129.80612397 31 128 C31.33 127.67 31.66 127.34 32 127 C32.09511266 124.35261911 32.12555635 121.73140999 32.11352539 119.08374023 C32.11367142 118.25454071 32.11381744 117.42534119 32.1139679 116.5710144 C32.11326851 113.81684802 32.10547493 111.06274839 32.09765625 108.30859375 C32.09579216 106.40430234 32.09436822 104.50001045 32.09336853 102.59571838 C32.08954263 97.57332037 32.07971173 92.55095108 32.06866455 87.52856445 C32.05845198 82.4077188 32.05387124 77.28686852 32.04882812 72.16601562 C32.03808953 62.11066443 32.02101224 52.0553346 32 42 C31.34 42 30.68 42 30 42 C29.97107143 38.04168191 29.95322573 34.08339083 29.9375 30.125 C29.92912109 28.99707031 29.92074219 27.86914062 29.91210938 26.70703125 C29.90727539 25.09248047 29.90727539 25.09248047 29.90234375 23.4453125 C29.89448853 21.95281982 29.89448853 21.95281982 29.88647461 20.43017578 C30 18 30 18 31 16 C31.16774849 10.96754528 30.84311788 7.05870725 30 2 C20.1 2 10.2 2 0 2 C0 1.34 0 0.68 0 0 Z " fill="#F1E8E5" transform="translate(321,112)"/>
<path d="M0 0 C0.99 0 1.98 0 3 0 C3.02350141 8.07771728 3.04110265 16.15541952 3.05181217 24.23316288 C3.05696042 27.98675331 3.06390501 31.74031982 3.07543945 35.49389648 C3.11833795 49.85463297 3.15847884 64.20703473 2.55859375 78.55859375 C2.50011009 79.99562401 2.50011009 79.99562401 2.44044495 81.46168518 C2.12958833 87.87041167 2.12958833 87.87041167 1 89 C-6.30515925 90.28914575 -13.60258007 90.09350671 -21 90 C-17 88 -17 88 0 88 C0 58.96 0 29.92 0 0 Z " fill="#E3D7CE" transform="translate(171,155)"/>
<path d="M0 0 C0.66 0.33 1.32 0.66 2 1 C0.68 2.32 -0.64 3.64 -2 5 C-1.67 5.66 -1.34 6.32 -1 7 C-0.01 7 0.98 7 2 7 C2 7.66 2 8.32 2 9 C1.01 9.495 1.01 9.495 0 10 C-2.1390695 14.8615216 -2.24710234 19.18095432 -2.125 24.375 C-2.11146484 25.47908203 -2.11146484 25.47908203 -2.09765625 26.60546875 C-2.07430144 28.4037888 -2.03843836 30.20193911 -2 32 C1.62189716 33.83101449 5.20774749 35.5500211 9 37 C8.67 37.99 8.34 38.98 8 40 C11.63 40 15.26 40 19 40 C14.33849375 42.33075312 11.08532022 42.95960747 6.015625 41.3828125 C-0.92909849 38.34113128 -5.224011 33.09365826 -8.9375 26.625 C-10.66058509 20.74623912 -11.32815532 14.83504687 -8.375 9.25 C-6.03768882 5.71040286 -3.09303321 2.88214458 0 0 Z " fill="#CECBC8" transform="translate(401,46)"/>
<path d="M0 0 C0.99 0.495 0.99 0.495 2 1 C2.72870472 3.31470912 3.39239518 5.6505947 4 8 C4.495 9.485 4.495 9.485 5 11 C5 15.95 5 20.9 5 26 C-19.42 26 -43.84 26 -69 26 C-69 25.67 -69 25.34 -69 25 C-48.09967539 23.92304755 -48.09967539 23.92304755 -38.875 24 C-29.98465004 24.06884121 -21.42884567 23.42863237 -12.75 21.5 C-9.47543575 20.90462468 -6.20337038 20.58839196 -2.890625 20.28125 C-0.99212742 20.19058268 -0.99212742 20.19058268 0 19 C0.08651611 17.58429877 0.10704904 16.164405 0.09765625 14.74609375 C0.09443359 13.89208984 0.09121094 13.03808594 0.08789062 12.15820312 C0.07951172 11.26037109 0.07113281 10.36253906 0.0625 9.4375 C0.05798828 8.53580078 0.05347656 7.63410156 0.04882812 6.70507812 C0.03700225 4.46998686 0.0205222 2.23502563 0 0 Z " fill="#ECE2DA" transform="translate(350,56)"/>
<path d="M0 0 C0.33 0 0.66 0 1 0 C1 30.69 1 61.38 1 93 C-2.96 93 -6.92 93 -11 93 C-11 91.68 -11 90.36 -11 89 C-8.36 88.67 -5.72 88.34 -3 88 C-2.07078969 69.44962433 -1.70417796 50.91168207 -1.44775391 32.34130859 C-1.39585028 28.66757967 -1.33877313 24.99395708 -1.28125 21.3203125 C-1.26767456 20.21398468 -1.25409912 19.10765686 -1.2401123 17.96780396 C-1.1433103 11.90957309 -0.77730515 6.00995347 0 0 Z " fill="#E8E1D9" transform="translate(175,155)"/>
<path d="M0 0 C2.18102181 -0.0021991 4.36154691 -0.02044213 6.54248047 -0.03930664 C7.94482251 -0.04223924 9.34716692 -0.04422493 10.74951172 -0.04516602 C12.00779785 -0.0492749 13.26608398 -0.05338379 14.5625 -0.05761719 C18.142497 0.19144567 22.38090362 0.51200713 25.05419922 3.18530273 C28.15222603 3.2117493 31.23546379 3.15677987 34.33154297 3.05834961 C38.38801601 2.9906089 41.40657801 3.38269923 45.05419922 5.18530273 C45.05419922 5.51530273 45.05419922 5.84530273 45.05419922 6.18530273 C15.35419922 6.18530273 -14.34580078 6.18530273 -44.94580078 6.18530273 C-44.94580078 5.85530273 -44.94580078 5.52530273 -44.94580078 5.18530273 C-16.23580078 4.69030273 -16.23580078 4.69030273 13.05419922 4.18530273 C11.0759085 2.20701201 7.23092895 2.93026342 4.51904297 2.86889648 C3.3891671 2.83772484 3.3891671 2.83772484 2.23646545 2.80592346 C-0.17836068 2.74034849 -2.59329876 2.68150652 -5.00830078 2.62280273 C-6.64177607 2.57962504 -8.27523989 2.536011 -9.90869141 2.49194336 C-13.92094542 2.38465911 -17.93331242 2.28341453 -21.94580078 2.18530273 C-21.94580078 1.85530273 -21.94580078 1.52530273 -21.94580078 1.18530273 C-14.61271009 0.16752295 -7.39533243 -0.00083563 0 0 Z " fill="#D7D1CC" transform="translate(189.94580078125,75.814697265625)"/>
<path d="M0 0 C0 0.33 0 0.66 0 1 C-3.24975317 1.17171265 -6.49982983 1.33638599 -9.75 1.5 C-10.65105469 1.54769531 -11.55210937 1.59539062 -12.48046875 1.64453125 C-17.44475185 1.89098502 -22.38945756 2.02572253 -27.36035156 2.01367188 C-28.42207581 2.011698 -29.48380005 2.00972412 -30.57769775 2.00769043 C-31.3770575 2.00515259 -32.17641724 2.00261475 -33 2 C-32.99631283 2.75629983 -32.99262566 3.51259966 -32.98882675 4.29181767 C-32.90044642 22.70374565 -32.83427614 41.11563124 -32.79275131 59.52772617 C-32.77213587 68.43172898 -32.74403479 77.3355901 -32.69824219 86.23950195 C-32.65834318 94.00117 -32.63255978 101.76273542 -32.62364602 109.52450317 C-32.61843644 113.63342905 -32.60621345 117.74206134 -32.57707977 121.85089302 C-32.54986209 125.72098187 -32.54156771 129.59065712 -32.54756927 133.4608326 C-32.54647186 134.87857819 -32.53855551 136.29633808 -32.5231781 137.7140007 C-32.38706078 150.91402046 -32.38706078 150.91402046 -37 157 C-37.66 157 -38.32 157 -39 157 C-38.71537399 156.18307678 -38.43074799 155.36615356 -38.13749695 154.5244751 C-34.10306561 141.12851376 -34.49353911 127.80318133 -34.62735581 113.92595196 C-34.65650259 110.41896314 -34.66141344 106.91193625 -34.66886902 103.40484619 C-34.68634607 96.77550249 -34.72335938 90.14643316 -34.7684657 83.5172255 C-34.83385353 73.80549876 -34.87375324 64.09365878 -34.90852642 54.38177872 C-34.91109583 53.66464887 -34.91366524 52.94751903 -34.91631252 52.20865798 C-34.92141273 50.77729051 -34.92644487 49.34592279 -34.93140715 47.91455483 C-34.94651856 43.76313492 -34.96876297 39.61183455 -34.99746478 35.46048689 C-35.01868544 32.25981103 -35.03363598 29.05910204 -35.05004883 25.85839844 C-35.05992828 24.72978394 -35.06980774 23.60116943 -35.07998657 22.43835449 C-35.10961221 15.24111783 -34.71514494 8.1614758 -34 1 C-22.67269834 -0.24912271 -11.38216291 -0.09875075 0 0 Z " fill="#64605D" transform="translate(347,105)"/>
<path d="M0 0 C28.71 0 57.42 0 87 0 C85 2 85 2 82.09838867 2.21118164 C80.8838501 2.19434326 79.66931152 2.17750488 78.41796875 2.16015625 C77.76677567 2.15495468 77.11558258 2.14975311 76.44465637 2.14439392 C74.35871221 2.12656347 72.27325635 2.09542414 70.1875 2.0625 C68.11250119 2.0347948 66.03757841 2.01005199 63.96247864 1.99131775 C62.07151087 1.97351345 60.18064078 1.9461059 58.28979492 1.91821289 C55.35488126 1.99117735 52.85788118 2.40353013 50 3 C48.06276137 3.08955399 46.12289997 3.1306157 44.18359375 3.1328125 C42.54293945 3.13474609 42.54293945 3.13474609 40.86914062 3.13671875 C39.17047852 3.13091797 39.17047852 3.13091797 37.4375 3.125 C36.30119141 3.12886719 35.16488281 3.13273437 33.99414062 3.13671875 C32.90166016 3.13542969 31.80917969 3.13414063 30.68359375 3.1328125 C29.68900146 3.13168457 28.69440918 3.13055664 27.66967773 3.12939453 C25 3 25 3 22.95629883 2.48413086 C20.5505407 1.88877102 18.48823382 1.9854018 16.015625 2.12109375 C14.61376953 2.19360352 14.61376953 2.19360352 13.18359375 2.26757812 C12.21550781 2.32365234 11.24742187 2.37972656 10.25 2.4375 C8.77466797 2.51581055 8.77466797 2.51581055 7.26953125 2.59570312 C4.84601151 2.72511437 2.42293136 2.86006905 0 3 C0 2.01 0 1.02 0 0 Z " fill="#CABDB3" transform="translate(150,55)"/>
<path d="M0 0 C10.56 0 21.12 0 32 0 C33.60869289 5.63042511 34.23241297 9.49826541 33.9765625 15.12109375 C33.93902359 16.23823509 33.93902359 16.23823509 33.90072632 17.37794495 C33.81925774 19.73164475 33.72239248 22.08441086 33.625 24.4375 C33.56668534 26.04358297 33.50938381 27.64970307 33.453125 29.25585938 C33.31378968 33.17109947 33.1606535 37.08557906 33 41 C31.515 41.495 31.515 41.495 30 42 C29.97107143 38.04168191 29.95322573 34.08339083 29.9375 30.125 C29.92912109 28.99707031 29.92074219 27.86914062 29.91210938 26.70703125 C29.90727539 25.09248047 29.90727539 25.09248047 29.90234375 23.4453125 C29.89448853 21.95281982 29.89448853 21.95281982 29.88647461 20.43017578 C30 18 30 18 31 16 C31.16774849 10.96754528 30.84311788 7.05870725 30 2 C20.1 2 10.2 2 0 2 C0 1.34 0 0.68 0 0 Z " fill="#E7DDD6" transform="translate(321,112)"/>
<path d="M0 0 C0.33 0.66 0.66 1.32 1 2 C1.64453125 2.11214844 2.2890625 2.22429687 2.953125 2.33984375 C3.62859375 2.55769531 4.3040625 2.77554688 5 3 C6.046875 5.06640625 6.046875 5.06640625 6.75 7.5625 C6.99234375 8.38878906 7.2346875 9.21507812 7.484375 10.06640625 C7.65453125 10.70449219 7.8246875 11.34257812 8 12 C7.525625 12.433125 7.05125 12.86625 6.5625 13.3125 C4.76313043 15.02309613 4.76313043 15.02309613 4 18 C3.34 18 2.68 18 2 18 C-0.31 13.05 -2.62 8.1 -5 3 C-3.35 2.01 -1.7 1.02 0 0 Z " fill="#E3DFDA" transform="translate(277,142)"/>
<path d="M0 0 C0.54140625 0.24621094 1.0828125 0.49242187 1.640625 0.74609375 C1.970625 2.06609375 2.300625 3.38609375 2.640625 4.74609375 C0.25489121 6.63822744 -1.43112848 7.77001158 -4.359375 8.74609375 C-4.689375 9.73609375 -5.019375 10.72609375 -5.359375 11.74609375 C-7.009375 12.07609375 -8.659375 12.40609375 -10.359375 12.74609375 C-10.359375 13.40609375 -10.359375 14.06609375 -10.359375 14.74609375 C-12.339375 15.07609375 -14.319375 15.40609375 -16.359375 15.74609375 C-15.039375 14.75609375 -13.719375 13.76609375 -12.359375 12.74609375 C-12.689375 11.09609375 -13.019375 9.44609375 -13.359375 7.74609375 C-11.62132159 6.37662753 -9.86846267 5.02593421 -8.109375 3.68359375 C-7.13484375 2.92949219 -6.1603125 2.17539062 -5.15625 1.3984375 C-2.359375 -0.25390625 -2.359375 -0.25390625 0 0 Z " fill="#F4E6DF" transform="translate(258.359375,272.25390625)"/>
<path d="M0 0 C1.33804688 0.04060547 1.33804688 0.04060547 2.703125 0.08203125 C3.37859375 0.11683594 4.0540625 0.15164063 4.75 0.1875 C1.56182342 4.96976486 -3.28151576 6.08200467 -8.6796875 7.30078125 C-14.95288795 8.51429882 -21.02710638 8.18156358 -27.375 7.8125 C-28.52226562 7.75578125 -29.66953125 7.6990625 -30.8515625 7.640625 C-33.65180698 7.50061278 -36.4509483 7.34936516 -39.25 7.1875 C-39.25 6.8575 -39.25 6.5275 -39.25 6.1875 C-38.44780029 6.16768066 -37.64560059 6.14786133 -36.8190918 6.12744141 C-33.19155823 6.03230505 -29.56460955 5.9225792 -25.9375 5.8125 C-24.67486328 5.7815625 -23.41222656 5.750625 -22.11132812 5.71875 C-20.29858398 5.66074219 -20.29858398 5.66074219 -18.44921875 5.6015625 C-17.33377686 5.5701416 -16.21833496 5.5387207 -15.0690918 5.50634766 C-11.64795845 5.11940731 -9.95434887 3.79862623 -7.390625 1.57421875 C-4.72694234 -0.1513421 -3.14091975 -0.12398367 0 0 Z " fill="#918B89" transform="translate(325.25,290.8125)"/>
<path d="M0 0 C0.68709549 -0.00095673 1.37419098 -0.00191345 2.08210754 -0.00289917 C3.5198272 -0.00357374 4.95755003 -0.00177049 6.39526367 0.00244141 C8.58714635 0.00782506 10.77882648 0.00245908 12.97070312 -0.00390625 C14.37630253 -0.00324582 15.78190181 -0.00196539 17.1875 0 C18.45102295 0.00112793 19.7145459 0.00225586 21.01635742 0.00341797 C23.94650408 0.11565167 26.55133446 0.45071621 29.39453125 1.1328125 C29.39453125 1.4628125 29.39453125 1.7928125 29.39453125 2.1328125 C14.30757888 3.1543249 -0.51168261 3.00190242 -15.60546875 2.1328125 C-15.60546875 1.8028125 -15.60546875 1.4728125 -15.60546875 1.1328125 C-10.35802305 0.40077983 -5.30967631 0.00472722 0 0 Z " fill="#E4D7CE" transform="translate(183.60546875,75.8671875)"/>
<path d="M0 0 C0.66 0.33 1.32 0.66 2 1 C2.10183594 1.79792969 2.20367187 2.59585938 2.30859375 3.41796875 C2.73212453 6.20014779 2.73212453 6.20014779 5.28515625 7.36328125 C6.20167969 7.67652344 7.11820312 7.98976563 8.0625 8.3125 C8.98160156 8.63863281 9.90070313 8.96476562 10.84765625 9.30078125 C11.55792969 9.53152344 12.26820313 9.76226562 13 10 C12.67 10.99 12.34 11.98 12 13 C15.63 13 19.26 13 23 13 C18.33849375 15.33075312 15.08532022 15.95960747 10.015625 14.3828125 C4.29379308 11.87673883 0.78158022 7.86878453 -3 3 C-2.67 2.34 -2.34 1.68 -2 1 C-1.67 1.33 -1.34 1.66 -1 2 C-0.67 1.34 -0.34 0.68 0 0 Z " fill="#CCC2BE" transform="translate(397,73)"/>
<path d="M0 0 C0.65226563 0.0721875 1.30453125 0.144375 1.9765625 0.21875 C5.82954822 0.62791662 9.55839105 1.00802925 13.4375 0.9375 C16 1 16 1 19 3 C19.144375 3.61875 19.28875 4.2375 19.4375 4.875 C19.8576689 7.21907242 19.8576689 7.21907242 22.125 9 C22.74375 9.66 23.3625 10.32 24 11 C23.75 13.25 23.75 13.25 23 15 C22.67 14.01 22.34 13.02 22 12 C21.34 12 20.68 12 20 12 C18.33333333 10.33333333 16.66666667 8.66666667 15 7 C10.51304767 3.66683541 5.3196545 2.4564491 0 1 C0 0.67 0 0.34 0 0 Z " fill="#B8B1AC" transform="translate(219,146)"/>
<path d="M0 0 C0 0.66 0 1.32 0 2 C-9.24 2 -18.48 2 -28 2 C-28 2.99 -28 3.98 -28 5 C-28.99 5 -29.98 5 -31 5 C-31 3.35 -31 1.7 -31 0 C-20.58835953 -1.35081164 -10.42811284 -0.70902441 0 0 Z " fill="#C4C0BF" transform="translate(176,150)"/>
<path d="M0 0 C-1.53574542 3.45542719 -3.39742827 6.24870989 -6 9 C-8.6875 9.6875 -8.6875 9.6875 -11 10 C-11.33 10.66 -11.66 11.32 -12 12 C-12 11.34 -12 10.68 -12 10 C-12.99 9.67 -13.98 9.34 -15 9 C-13.33333333 7.33333333 -11.66666667 5.66666667 -10 4 C-9.46375 3.4225 -8.9275 2.845 -8.375 2.25 C-5.73533646 -0.14969413 -3.49607862 0 0 0 Z " fill="#FBF4F2" transform="translate(247,243)"/>
<path d="M0 0 C-3.36287592 7.26974647 -8.65507592 13.20261838 -15 18 C-15 16.68 -15 15.36 -15 14 C-14.01 14 -13.02 14 -12 14 C-12.185625 12.9790625 -12.185625 12.9790625 -12.375 11.9375 C-11.81206085 7.52780998 -9.12959936 5.022995 -6 2 C-3 0 -3 0 0 0 Z " fill="#C6C0B8" transform="translate(423,312)"/>
<path d="M0 0 C1.31471568 0.28151087 2.62675767 0.57553339 3.9375 0.875 C4.66839844 1.03742188 5.39929688 1.19984375 6.15234375 1.3671875 C8 2 8 2 9 4 C9.66 4 10.32 4 11 4 C11 4.66 11 5.32 11 6 C11.66 6.66 12.32 7.32 13 8 C12.01 8.495 12.01 8.495 11 9 C10.01 8.67 9.02 8.34 8 8 C7.67 8.99 7.34 9.98 7 11 C7 10.34 7 9.68 7 9 C6.236875 8.773125 5.47375 8.54625 4.6875 8.3125 C1.42695432 6.72014048 0.4726862 5.27263601 -1 2 C-0.67 1.34 -0.34 0.68 0 0 Z " fill="#F3ECE7" transform="translate(249,117)"/>
<path d="M0 0 C8.415 1.485 8.415 1.485 17 3 C17 2.34 17 1.68 17 1 C18.32 0.67 19.64 0.34 21 0 C21 0.66 21 1.32 21 2 C26.28 2.33 31.56 2.66 37 3 C37 3.33 37 3.66 37 4 C32.89234358 4.02496472 28.78471736 4.04298366 24.67700195 4.05493164 C23.28343943 4.05991957 21.88988202 4.06671231 20.49633789 4.07543945 C12.93069922 4.12158795 5.50545574 4.05558458 -2 3 C-1.34 2.01 -0.68 1.02 0 0 Z M9 0 C9.99 0.495 9.99 0.495 11 1 C10.01 1.495 10.01 1.495 9 2 C9 1.34 9 0.68 9 0 Z " fill="#ECE4E2" transform="translate(239,350)"/>
<path d="M0 0 C0 0.66 0 1.32 0 2 C0.99 1.67 1.98 1.34 3 1 C2.67 1.99 2.34 2.98 2 4 C1.34 4 0.68 4 0 4 C-0.33 4.99 -0.66 5.98 -1 7 C-2.7421875 8.640625 -2.7421875 8.640625 -4.875 10.25 C-5.57367188 10.79140625 -6.27234375 11.3328125 -6.9921875 11.890625 C-7.65476562 12.25671875 -8.31734375 12.6228125 -9 13 C-9.99 12.67 -10.98 12.34 -12 12 C-10.04783565 10.04783565 -8.46800047 9.15173355 -6 8 C-6.165 7.401875 -6.33 6.80375 -6.5 6.1875 C-7 4 -7 4 -7 1 C-2.25 0 -2.25 0 0 0 Z " fill="#B9B0AC" transform="translate(266,269)"/>
<path d="M0 0 C0.33 0 0.66 0 1 0 C1.0994692 4.42905723 1.17174818 8.85750909 1.21972656 13.28735352 C1.23974363 14.79170062 1.26696627 16.29597089 1.30175781 17.80004883 C1.35071945 19.97236162 1.37306653 22.14363906 1.390625 24.31640625 C1.41157227 25.62037354 1.43251953 26.92434082 1.45410156 28.26782227 C0.89882326 32.83155316 -0.50523867 35.18664077 -3 39 C-3.66 39 -4.32 39 -5 39 C-4.72285156 38.11183594 -4.44570313 37.22367187 -4.16015625 36.30859375 C-0.66842287 24.28934269 -0.19003713 12.46381471 0 0 Z " fill="#6E6B68" transform="translate(313,223)"/>
<path d="M0 0 C0 1.33333333 0 2.66666667 0 4 C-5.94 4 -11.88 4 -18 4 C-12.83747822 -1.16252178 -6.92913889 -0.12109175 0 0 Z " fill="#F8ECE8" transform="translate(322,350)"/>
<path d="M0 0 C0 0.99 0 1.98 0 3 C-1.9667262 4.93160609 -4.08957768 6.57091566 -6.25 8.28125 C-6.8275 8.8484375 -7.405 9.415625 -8 10 C-8 10.99 -8 11.98 -8 13 C-12.3164922 13.76173392 -15.74433453 14.16063604 -20 13 C-17.10709529 11.07139686 -14.26405484 9.67091868 -11.125 8.1875 C-6.55011393 5.93328858 -3.23374359 3.92668865 0 0 Z " fill="#949093" transform="translate(241,241)"/>
<path d="M0 0 C0.66 0.66 1.32 1.32 2 2 C0.68 3.32 -0.64 4.64 -2 6 C-1.34 6 -0.68 6 0 6 C0.33 6.99 0.66 7.98 1 9 C-2.21451269 10.60725635 -5.43612536 10.05748185 -9 10 C-6.68116787 5.49115974 -3.93548431 3.06093224 0 0 Z " fill="#F9F4EE" transform="translate(292,286)"/>
<path d="M0 0 C0.33 1.32 0.66 2.64 1 4 C1.99 3.67 2.98 3.34 4 3 C3.42316338 6.89364717 1.45178223 9.01189041 -1 12 C-1.33 12.99 -1.66 13.98 -2 15 C-2.66 14.67 -3.32 14.34 -4 14 C-3.71572583 12.41532272 -3.42225182 10.8322943 -3.125 9.25 C-2.96257812 8.36828125 -2.80015625 7.4865625 -2.6328125 6.578125 C-2.03203736 4.13052256 -1.22002883 2.19400143 0 0 Z " fill="#C3BAB2" transform="translate(277,251)"/>
<path d="M0 0 C0.99 0 1.98 0 3 0 C2.8902432 3.77143982 2.75958521 7.54187097 2.625 11.3125 C2.5940625 12.38435547 2.563125 13.45621094 2.53125 14.56054688 C2.49257812 15.58857422 2.45390625 16.61660156 2.4140625 17.67578125 C2.3826416 18.62364502 2.3512207 19.57150879 2.31884766 20.5480957 C2 23 2 23 0 26 C0 17.42 0 8.84 0 0 Z " fill="#DFD3CA" transform="translate(171,155)"/>
<path d="M0 0 C1.13864162 3.41592487 0.84292788 4.21442309 -0.3125 7.5 C-0.57675781 8.2734375 -0.84101563 9.046875 -1.11328125 9.84375 C-2 12 -2 12 -4 15 C-3.95875 14.071875 -3.9175 13.14375 -3.875 12.1875 C-3.72863661 8.84190281 -3.72863661 8.84190281 -6 6 C-5.125 3.3125 -5.125 3.3125 -4 1 C-2.68 1.33 -1.36 1.66 0 2 C0 1.34 0 0.68 0 0 Z " fill="#B8B0A9" transform="translate(288,233)"/>
<path d="M0 0 C0.98392619 3.1057262 1.07668347 3.80627333 -0.1875 7 C-3.49367595 12.47229123 -7.37046434 15.18523217 -13 18 C-13.66 17.67 -14.32 17.34 -15 17 C-14.25556641 16.54173828 -14.25556641 16.54173828 -13.49609375 16.07421875 C-7.16956199 11.8125133 -3.7395481 6.56758136 0 0 Z " fill="#707072" transform="translate(387,290)"/>
<path d="M0 0 C5.28 0 10.56 0 16 0 C16 0.33 16 0.66 16 1 C15.39671875 1.02578125 14.7934375 1.0515625 14.171875 1.078125 C8.96991126 1.36631237 8.96991126 1.36631237 4.625 4 C4.08875 4.66 3.5525 5.32 3 6 C2.01 6.33 1.02 6.66 0 7 C0 4.69 0 2.38 0 0 Z " fill="#F8F4F0" transform="translate(145,49)"/>
<path d="M0 0 C0.33 0.66 0.66 1.32 1 2 C0.67 2.66 0.34 3.32 0 4 C0.61875 3.814375 1.2375 3.62875 1.875 3.4375 C4 3 4 3 6 4 C5.67 4.66 5.34 5.32 5 6 C3.35 6 1.7 6 0 6 C0 6.66 0 7.32 0 8 C-1.98 8 -3.96 8 -6 8 C-6.33 7.34 -6.66 6.68 -7 6 C-4.69 4.02 -2.38 2.04 0 0 Z " fill="#F4E8E0" transform="translate(301,288)"/>
<path d="M0 0 C0.66 0 1.32 0 2 0 C2.33 1.98 2.66 3.96 3 6 C1.68 5.01 0.36 4.02 -1 3 C-0.67 3.886875 -0.34 4.77375 0 5.6875 C0.91222143 8.70923347 1.18330958 10.88373706 1 14 C0.01 14 -0.98 14 -2 14 C-4.21538462 6.61538462 -4.21538462 6.61538462 -3.125 3.5 C-2.75375 3.005 -2.3825 2.51 -2 2 C-1.34 2 -0.68 2 0 2 C0 1.34 0 0.68 0 0 Z " fill="#DAD4CF" transform="translate(284,154)"/>
<path d="M0 0 C1 2 1 2 0.328125 4.27734375 C-0.02765625 5.15519531 -0.3834375 6.03304688 -0.75 6.9375 C-1.26820313 8.25041016 -1.26820313 8.25041016 -1.796875 9.58984375 C-2.95642525 11.91270902 -4.05798473 13.30910739 -6 15 C-6.125 7.25 -6.125 7.25 -5 5 C-4.01 5 -3.02 5 -2 5 C-2 3.68 -2 2.36 -2 1 C-1.34 0.67 -0.68 0.34 0 0 Z " fill="#ADA79B" transform="translate(429,297)"/>
<path d="M0 0 C5.28 0 10.56 0 16 0 C16 0.33 16 0.66 16 1 C14.00458132 1.68025637 12.00382009 2.34490497 10 3 C9.34 3.226875 8.68 3.45375 8 3.6875 C5.19802412 4.12530873 2.75695599 3.56392282 0 3 C0 2.01 0 1.02 0 0 Z " fill="#E8DED3" transform="translate(151,77)"/>
<path d="M0 0 C-2.82229513 1.88153009 -5.27890171 3.00034705 -8.4375 4.1875 C-9.85869141 4.73470703 -9.85869141 4.73470703 -11.30859375 5.29296875 C-14.07083217 6.01860758 -15.36366738 5.97849698 -18 5 C-15.6875 3.4375 -15.6875 3.4375 -13 2 C-12.01 2.33 -11.02 2.66 -10 3 C-10 2.34 -10 1.68 -10 1 C-6.21812119 -0.83691257 -4.05431692 -1.15837626 0 0 Z " fill="#B1AAA8" transform="translate(383,345)"/>
<path d="M0 0 C0.66 1.32 1.32 2.64 2 4 C-1.28804981 6.91227269 -3.59885603 8.49701212 -8 9 C-8.33 8.01 -8.66 7.02 -9 6 C-6 6 -6 6 -4 7 C-4 5.35 -4 3.7 -4 2 C-2.68 1.34 -1.36 0.68 0 0 Z " fill="#CCC2C0" transform="translate(395,334)"/>
<path d="M0 0 C1.41377341 2.63904371 2.37240135 5.07120629 3 8 C2.01 8.33 1.02 8.66 0 9 C-0.33 8.01 -0.66 7.02 -1 6 C-1.99 6.33 -2.98 6.66 -4 7 C-4.33 8.65 -4.66 10.3 -5 12 C-5.66 12 -6.32 12 -7 12 C-6.34 9.69 -5.68 7.38 -5 5 C-3.35 4.67 -1.7 4.34 0 4 C0 2.68 0 1.36 0 0 Z " fill="#F0E3E1" transform="translate(396,329)"/>
<path d="M0 0 C2.42523913 2.17477363 2.81031727 2.92923679 3.6875 6.25 C3.749375 7.5803125 3.749375 7.5803125 3.8125 8.9375 C3.1525 8.6075 2.4925 8.2775 1.8125 7.9375 C1.8125 7.2775 1.8125 6.6175 1.8125 5.9375 C1.1525 5.9375 0.4925 5.9375 -0.1875 5.9375 C-1.89634005 4.31410195 -3.56196717 2.64430947 -5.1875 0.9375 C-5.8475 0.2775 -6.5075 -0.3825 -7.1875 -1.0625 C-3.89509411 -2.70870295 -3.16768773 -2.0496803 0 0 Z " fill="#AEA4A2" transform="translate(239.1875,152.0625)"/>
<path d="M0 0 C-2.39323804 2.39323804 -3.73148638 2.44196109 -7 3 C-10.11785113 3.64644661 -10.11785113 3.64644661 -11 6 C-11.99 5.67 -12.98 5.34 -14 5 C-14.33 5.66 -14.66 6.32 -15 7 C-15 4 -15 4 -13.75 2.375 C-9.70194857 -0.80561183 -4.915063 -0.08191772 0 0 Z " fill="#F7F5F3" transform="translate(415,45)"/>
<path d="M0 0 C0.66 0.66 1.32 1.32 2 2 C3.31747324 2.69748583 4.64914193 3.36959957 6 4 C3 6 3 6 0 6 C0 6.66 0 7.32 0 8 C-1.98 8.33 -3.96 8.66 -6 9 C-4.68 8.01 -3.36 7.02 -2 6 C-2.33 4.68 -2.66 3.36 -3 2 C-2.01 1.34 -1.02 0.68 0 0 Z " fill="#B8B0AA" transform="translate(248,279)"/>
<path d="M0 0 C0.33 0 0.66 0 1 0 C1.27679283 2.72881626 1.52206665 5.45453444 1.75 8.1875 C1.87181641 9.34088867 1.87181641 9.34088867 1.99609375 10.51757812 C2.31845594 14.69037763 2.37302662 16.42650829 0.015625 20.05078125 C-0.64953125 20.69402344 -1.3146875 21.33726562 -2 22 C-1.40711812 14.65835626 -0.761788 7.32613141 0 0 Z " fill="#84817F" transform="translate(394,258)"/>
<path d="M0 0 C0.33 1.32 0.66 2.64 1 4 C0.01 4.66 -0.98 5.32 -2 6 C-2.33 6.99 -2.66 7.98 -3 9 C-3.99 6.03 -4.98 3.06 -6 0 C-3.50907189 -1.24546405 -2.58919267 -0.7767578 0 0 Z " fill="#BBB6B1" transform="translate(249,161)"/>
<path d="M0 0 C1.8125 0.0625 1.8125 0.0625 4 1 C5.81278756 4.4960903 7 7.03981755 7 11 C6.01 10.67 5.02 10.34 4 10 C3.896875 9.236875 3.79375 8.47375 3.6875 7.6875 C2.94399108 4.78105605 2.15141968 3.96433971 0 2 C0 1.34 0 0.68 0 0 Z " fill="#D0C3B7" transform="translate(272,150)"/>
<path d="M0 0 C5.61 0 11.22 0 17 0 C17 0.33 17 0.66 17 1 C16.43152344 1.06058594 15.86304688 1.12117188 15.27734375 1.18359375 C10.50218963 1.70176573 5.7507695 2.29243859 1 3 C0.67 2.01 0.34 1.02 0 0 Z " fill="#D7CBC2" transform="translate(411,114)"/>
<path d="M0 0 C0.66 0.99 1.32 1.98 2 3 C-0.64 5.64 -3.28 8.28 -6 11 C-6.33 9.68 -6.66 8.36 -7 7 C-6.01 7 -5.02 7 -4 7 C-4 6.01 -4 5.02 -4 4 C-3.34 4 -2.68 4 -2 4 C-2 3.34 -2 2.68 -2 2 C-1.34 2 -0.68 2 0 2 C0 1.34 0 0.68 0 0 Z " fill="#9E9993" transform="translate(415,319)"/>
<path d="M0 0 C1.0625 1.875 1.0625 1.875 2 4 C1.67 4.66 1.34 5.32 1 6 C0.34 6 -0.32 6 -1 6 C-1.4021875 7.175625 -1.4021875 7.175625 -1.8125 8.375 C-3 11 -3 11 -6 13 C-5.731875 12.484375 -5.46375 11.96875 -5.1875 11.4375 C-3.67776746 8.33857531 -2.35062368 5.17102951 -1 2 C-0.67 1.34 -0.34 0.68 0 0 Z " fill="#87807A" transform="translate(346,270)"/>
<path d="M0 0 C0.66 0.33 1.32 0.66 2 1 C3.87056791 1.2275015 5.74685958 1.40962811 7.625 1.5625 C8.62789063 1.64628906 9.63078125 1.73007813 10.6640625 1.81640625 C11.43492187 1.87699219 12.20578125 1.93757813 13 2 C9.15511769 4.12015392 6.41415166 4.30976503 2 4 C-0.9375 3 -0.9375 3 -3 2 C-2.01 1.34 -1.02 0.68 0 0 Z " fill="#7D7A79" transform="translate(407,84)"/>
<path d="M0 0 C0.66 0.33 1.32 0.66 2 1 C1.67 1.99 1.34 2.98 1 4 C0.34 4 -0.32 4 -1 4 C-1 4.66 -1 5.32 -1 6 C-2.98 6.66 -4.96 7.32 -7 8 C-6.875 6.125 -6.875 6.125 -6 4 C-2.9375 2.75 -2.9375 2.75 0 2 C0 1.34 0 0.68 0 0 Z " fill="#ADA6A1" transform="translate(427,78)"/>
<path d="M0 0 C0.33 0.66 0.66 1.32 1 2 C0.34 2 -0.32 2 -1 2 C-1 2.66 -1 3.32 -1 4 C-1.66 4 -2.32 4 -3 4 C-3.268125 4.9075 -3.53625 5.815 -3.8125 6.75 C-4.89576294 9.71471963 -5.98359457 11.6169754 -8 14 C-7.32829194 10.1936543 -6.27253436 6.64793184 -5 3 C-4.01 3 -3.02 3 -2 3 C-2 2.34 -2 1.68 -2 1 C-1.34 0.67 -0.68 0.34 0 0 Z " fill="#F7EDE4" transform="translate(406,52)"/>
<path d="M0 0 C2.2109885 0.42793326 3.98119242 0.99059621 6 2 C6 2.66 6 3.32 6 4 C3.23735711 4.59732819 0.83967231 5 -2 5 C-1.125 1.125 -1.125 1.125 0 0 Z " fill="#FBF2EC" transform="translate(367,344)"/>
<path d="M0 0 C0.99 0.33 1.98 0.66 3 1 C3.625 4.375 3.625 4.375 4 8 C3.34 8.66 2.68 9.32 2 10 C0.68373308 6.38026598 0 3.90432869 0 0 Z " fill="#F9F4F2" transform="translate(283,157)"/>
<path d="M0 0 C2.35171131 0.59861742 4.6859378 1.26924352 7 2 C7.33 2.66 7.66 3.32 8 4 C5.1875 4.625 5.1875 4.625 2 5 C1.01 4.34 0.02 3.68 -1 3 C-0.34 2.67 0.32 2.34 1 2 C0.67 1.34 0.34 0.68 0 0 Z " fill="#EFE4DE" transform="translate(224,143)"/>
<path d="M0 0 C3.63 0 7.26 0 11 0 C10.67 0.99 10.34 1.98 10 3 C6.7 2.67 3.4 2.34 0 2 C0 1.34 0 0.68 0 0 Z " fill="#CEC1B7" transform="translate(336,56)"/>
<path d="M0 0 C0 0.66 0 1.32 0 2 C0.66 2.33 1.32 2.66 2 3 C-1.22791555 5.1519437 -2.28400809 5.20086443 -6 5 C-6 4.34 -6 3.68 -6 3 C-2.53846154 0 -2.53846154 0 0 0 Z " fill="#F0E5DF" transform="translate(329,287)"/>
<path d="M0 0 C0.75 1.5625 0.75 1.5625 1 4 C-0.13084437 6.50286409 -1.52139516 8.67007722 -3 11 C-3.66 11 -4.32 11 -5 11 C-3.92289822 6.69159287 -2.96052484 3.36423277 0 0 Z " fill="#ACAAAB" transform="translate(313,251)"/>
<path d="M0 0 C4.455 0.99 4.455 0.99 9 2 C9 2.33 9 2.66 9 3 C5.37 3 1.74 3 -2 3 C-1.34 2.01 -0.68 1.02 0 0 Z M9 0 C9.99 0.495 9.99 0.495 11 1 C10.01 1.495 10.01 1.495 9 2 C9 1.34 9 0.68 9 0 Z " fill="#F5ECE6" transform="translate(239,350)"/>
<path d="M0 0 C0.66 0 1.32 0 2 0 C2 0.66 2 1.32 2 2 C2.99 1.67 3.98 1.34 5 1 C4.67 1.99 4.34 2.98 4 4 C3.34 4 2.68 4 2 4 C1.67 4.99 1.34 5.98 1 7 C0.34 6.67 -0.32 6.34 -1 6 C-0.34 5.01 0.32 4.02 1 3 C0.01 3.33 -0.98 3.66 -2 4 C-1.34 2.68 -0.68 1.36 0 0 Z " fill="#9E9791" transform="translate(264,269)"/>
<path d="M0 0 C0.66 0.33 1.32 0.66 2 1 C1.34 3.31 0.68 5.62 0 8 C-0.99 8 -1.98 8 -3 8 C-2.34 6.68 -1.68 5.36 -1 4 C-1.66 3.67 -2.32 3.34 -3 3 C-3 2.34 -3 1.68 -3 1 C-2.01 0.67 -1.02 0.34 0 0 Z " fill="#E8DCD3" transform="translate(342,272)"/>
<path d="M0 0 C3.3 0 6.6 0 10 0 C8 3 8 3 5.375 3.6875 C4.59125 3.790625 3.8075 3.89375 3 4 C3 3.34 3 2.68 3 2 C2.01 1.67 1.02 1.34 0 1 C0 0.67 0 0.34 0 0 Z " fill="#A09997" transform="translate(320,291)"/>
<path d="M0 0 C0.33 0.66 0.66 1.32 1 2 C0.67 2.66 0.34 3.32 0 4 C0.61875 3.814375 1.2375 3.62875 1.875 3.4375 C4 3 4 3 6 4 C5.67 4.66 5.34 5.32 5 6 C2.36 6 -0.28 6 -3 6 C-2.01 4.02 -1.02 2.04 0 0 Z " fill="#ECDFD5" transform="translate(301,288)"/>
<path d="M0 0 C0 3.20395416 -0.74335022 5.09399739 -2 8 C-2.99 6.68 -3.98 5.36 -5 4 C-3.36587557 2.29159719 -2.13093906 1.06546953 0 0 Z " fill="#F6EDE6" transform="translate(277,142)"/>
<path d="M0 0 C0.66 0 1.32 0 2 0 C1.60196439 2.88575819 1.20990931 3.82189513 -1.0625 5.75 C-1.701875 6.1625 -2.34125 6.575 -3 7 C-2.25 2.25 -2.25 2.25 0 0 Z " fill="#B3ACA5" transform="translate(338,281)"/>
<path d="M0 0 C2.62187494 1.04874998 3.79371361 1.64931313 5.25 4.125 C5.4975 4.74375 5.745 5.3625 6 6 C5.34 6 4.68 6 4 6 C3.67 6.66 3.34 7.32 3 8 C2.01 5.36 1.02 2.72 0 0 Z " fill="#E9DFDA" transform="translate(241,154)"/>
<path d="M0 0 C0.66 0.33 1.32 0.66 2 1 C2 3.31 2 5.62 2 8 C0.35 6.35 -1.3 4.7 -3 3 C-2.67 2.34 -2.34 1.68 -2 1 C-1.67 1.33 -1.34 1.66 -1 2 C-0.67 1.34 -0.34 0.68 0 0 Z " fill="#8E8C89" transform="translate(397,73)"/>
<path d="M0 0 C0.66 0 1.32 0 2 0 C1.67 1.65 1.34 3.3 1 5 C-0.32 5.33 -1.64 5.66 -3 6 C-3 5.34 -3 4.68 -3 4 C-2.34 4 -1.68 4 -1 4 C-0.67 2.68 -0.34 1.36 0 0 Z M-5 5 C-4.34 5.66 -3.68 6.32 -3 7 C-3.66 7 -4.32 7 -5 7 C-5 6.34 -5 5.68 -5 5 Z " fill="#F2ECE3" transform="translate(422,307)"/>
<path d="M0 0 C0.33 0 0.66 0 1 0 C0.67 2.31 0.34 4.62 0 7 C-0.99 6.67 -1.98 6.34 -3 6 C-2.42655063 3.13275314 -2.1385485 2.1385485 0 0 Z " fill="#EADDD5" transform="translate(273,260)"/>
<path d="M0 0 C0.99 0.33 1.98 0.66 3 1 C2.690625 1.598125 2.38125 2.19625 2.0625 2.8125 C0.89790296 5.08956772 0.89790296 5.08956772 0 8 C-0.66 7.67 -1.32 7.34 -2 7 C-1.34 4.69 -0.68 2.38 0 0 Z " fill="#A79B95" transform="translate(275,258)"/>
<path d="M0 0 C2.64 0 5.28 0 8 0 C8 0.99 8 1.98 8 3 C5.36 2.67 2.72 2.34 0 2 C0 1.34 0 0.68 0 0 Z " fill="#CCC2B8" transform="translate(214,114)"/>
<path d="" fill="#FFFFFF" transform="translate(0,0)"/>
<path d="" fill="#FFFFFF" transform="translate(0,0)"/>
<path d="" fill="#000000" transform="translate(0,0)"/>
<path d="" fill="#000000" transform="translate(0,0)"/>
<path d="" fill="#000000" transform="translate(0,0)"/>
<path d="" fill="#000000" transform="translate(0,0)"/>
<path d="" fill="#000000" transform="translate(0,0)"/>
<path d="" fill="#000000" transform="translate(0,0)"/>
<path d="" fill="#000000" transform="translate(0,0)"/>
<path d="" fill="#000000" transform="translate(0,0)"/>
<path d="" fill="#000000" transform="translate(0,0)"/>
<path d="" fill="#FFFFFF" transform="translate(0,0)"/>
<path d="" fill="#FFFFFF" transform="translate(0,0)"/>
<path d="" fill="#000000" transform="translate(0,0)"/>
<path d="" fill="#000000" transform="translate(0,0)"/>
<path d="" fill="#000000" transform="translate(0,0)"/>
<path d="" fill="#000000" transform="translate(0,0)"/>
<path d="" fill="#000000" transform="translate(0,0)"/>
<path d="" fill="#000000" transform="translate(0,0)"/>
<path d="" fill="#000000" transform="translate(0,0)"/>
<path d="" fill="#FFFFFF" transform="translate(0,0)"/>
<path d="" fill="#000000" transform="translate(0,0)"/>
<path d="" fill="#FFFFFF" transform="translate(0,0)"/>
<path d="" fill="#000000" transform="translate(0,0)"/>
<path d="" fill="#000000" transform="translate(0,0)"/>
<path d="" fill="#FFFFFF" transform="translate(0,0)"/>
<path d="" fill="#FFFFFF" transform="translate(0,0)"/>
<path d="" fill="#FFFFFF" transform="translate(0,0)"/>
<path d="" fill="#FFFFFF" transform="translate(0,0)"/>
<path d="" fill="#000000" transform="translate(0,0)"/>
<path d="" fill="#000000" transform="translate(0,0)"/>
<path d="" fill="#FFFFFF" transform="translate(0,0)"/>
<path d="" fill="#000000" transform="translate(0,0)"/>
<path d="" fill="#FFFFFF" transform="translate(0,0)"/>
<path d="" fill="#000000" transform="translate(0,0)"/>
<path d="" fill="#000000" transform="translate(0,0)"/>
<path d="" fill="#000000" transform="translate(0,0)"/>
<path d="" fill="#FFFFFF" transform="translate(0,0)"/>
<path d="" fill="#000000" transform="translate(0,0)"/>
<path d="" fill="#000000" transform="translate(0,0)"/>
<path d="" fill="#000000" transform="translate(0,0)"/>
<path d="" fill="#000000" transform="translate(0,0)"/>
<path d="" fill="#000000" transform="translate(0,0)"/>
<path d="" fill="#000000" transform="translate(0,0)"/>
<path d="" fill="#000000" transform="translate(0,0)"/>
<path d="" fill="#000000" transform="translate(0,0)"/>
<path d="" fill="#000000" transform="translate(0,0)"/>
<path d="" fill="#000000" transform="translate(0,0)"/>
<path d="" fill="#000000" transform="translate(0,0)"/>
<path d="" fill="#000000" transform="translate(0,0)"/>
<path d="" fill="#FFFFFF" transform="translate(0,0)"/>
<path d="" fill="#000000" transform="translate(0,0)"/>
<path d="" fill="#FFFFFF" transform="translate(0,0)"/>
<path d="" fill="#000000" transform="translate(0,0)"/>
<path d="" fill="#FFFFFF" transform="translate(0,0)"/>
<path d="" fill="#FFFFFF" transform="translate(0,0)"/>
<path d="" fill="#000000" transform="translate(0,0)"/>
<path d="" fill="#FFFFFF" transform="translate(0,0)"/>
<path d="" fill="#FFFFFF" transform="translate(0,0)"/>
<path d="" fill="#FFFFFF" transform="translate(0,0)"/>
<path d="" fill="#FFFFFF" transform="translate(0,0)"/>
<path d="" fill="#FFFFFF" transform="translate(0,0)"/>
<path d="" fill="#FFFFFF" transform="translate(0,0)"/>
<path d="" fill="#FFFFFF" transform="translate(0,0)"/>
</svg>
