<?xml version="1.0" encoding="UTF-8"?>
<svg version="1.1" xmlns="http://www.w3.org/2000/svg" width="577" height="433">
<path d="M0 0 C13.86 0 27.72 0 42 0 C42.04522153 21.81034543 42.08203259 43.62065265 42.10362434 65.43103313 C42.11391814 75.5589383 42.12794207 85.68681218 42.15087891 95.81469727 C42.170871 104.64655845 42.18373021 113.47839696 42.18817699 122.31028014 C42.19077454 126.98268143 42.19684007 131.65501788 42.21146011 136.3273983 C42.22513616 140.73420818 42.22920259 145.14092711 42.22621536 149.5477562 C42.22676108 151.15647057 42.23067838 152.76518831 42.23841095 154.3738842 C42.29523654 166.81682846 41.62798194 178.91218886 37.25 190.6875 C36.85530518 191.76946655 36.85530518 191.76946655 36.45263672 192.87329102 C28.66702741 213.51512534 12.12872361 229.07900497 -7.54296875 238.5234375 C-11.58353239 240.24923756 -15.65626887 241.76612224 -19.8125 243.1875 C-20.49828125 243.4254126 -21.1840625 243.6633252 -21.890625 243.90844727 C-36.24333612 248.60764339 -49.82792928 249.42809502 -64.79663086 249.34057617 C-66.84807828 249.33972816 -68.89952661 249.34020843 -70.95097351 249.34190369 C-76.47478394 249.34275828 -81.9983957 249.32522002 -87.52216029 249.30418181 C-93.31168384 249.28532493 -99.10121281 249.28365751 -104.89076233 249.28010559 C-115.83384022 249.27081147 -126.77682732 249.24623356 -137.71986538 249.21605712 C-150.18671051 249.18243084 -162.65356016 249.16600647 -175.12043941 249.15097082 C-200.74700978 249.11968148 -226.37349978 249.06697257 -252 249 C-252.00498087 246.28710708 -252.00861103 243.57422343 -252.01147461 240.86132812 C-252.01301292 240.09894836 -252.01455124 239.3365686 -252.01613617 238.55108643 C-252.02063826 232.85660721 -251.88589582 227.18597431 -251.5625 221.5 C-251.52318359 220.67886719 -251.48386719 219.85773438 -251.44335938 219.01171875 C-251.12614346 213.12614346 -251.12614346 213.12614346 -250 212 C-247.71594726 211.90508821 -245.42888863 211.88259318 -243.14286804 211.88647461 C-242.41700196 211.88632575 -241.69113587 211.88617689 -240.94327384 211.88602352 C-238.49169481 211.88672231 -236.04018918 211.89458454 -233.58862305 211.90234375 C-231.83769778 211.90426165 -230.08677196 211.90572605 -228.33584595 211.9067688 C-224.55225815 211.90993991 -220.76869243 211.91622452 -216.98511314 211.92483521 C-210.98526042 211.9383431 -204.98541511 211.94425029 -198.98554993 211.94897461 C-185.14009043 211.96104026 -171.29464975 211.98295659 -157.44920349 212.00520325 C-144.81149246 212.02544537 -132.17378837 212.04352609 -119.53606445 212.05341816 C-113.59141335 212.05835923 -107.64679734 212.06815915 -101.70216024 212.08184814 C-97.96894803 212.08940212 -94.23574036 212.0926423 -90.50252151 212.0948143 C-88.79354506 212.09665914 -87.08456928 212.10020363 -85.37560081 212.10574722 C-76.35690329 212.134034 -67.35540598 212.01131383 -58.34407043 211.62670898 C-57.12761181 211.58256536 -57.12761181 211.58256536 -55.88657826 211.53752995 C-41.53414093 210.839158 -24.71092949 204.68656207 -14 195 C-2.60217782 180.1662439 -0.67325067 164.59923799 -0.78881836 146.41259766 C-0.79102484 144.88363749 -0.79232616 143.3546758 -0.7928009 141.82571411 C-0.79571287 138.55845446 -0.8048854 135.29129675 -0.81910515 132.02406693 C-0.84153403 126.85469972 -0.8494875 121.68536926 -0.85560608 116.51596069 C-0.86694472 108.34239083 -0.88764405 100.16887678 -0.91250378 91.99533784 C-0.95697903 77.34545776 -0.99005074 62.69555776 -1.01274782 48.04562795 C-1.02113832 42.90910272 -1.03514439 37.77263253 -1.05372036 32.63613439 C-1.06437734 29.44334383 -1.07095167 26.25055378 -1.07652092 23.0577507 C-1.07998486 21.57992788 -1.08519175 20.10210794 -1.09228897 18.6242981 C-1.1017772 16.60392885 -1.10444706 14.58353103 -1.10679626 12.56314087 C-1.11031569 11.43385981 -1.11383512 10.30457874 -1.1174612 9.14107704 C-1 6 -1 6 0 0 Z " fill="#18252D" transform="translate(394,106)"/>
<path d="M0 0 C10.85803012 -0.0930928 21.71596372 -0.16396308 32.57431316 -0.20724869 C37.61747626 -0.22803419 42.66036429 -0.25618478 47.70336914 -0.30175781 C52.57931496 -0.34554035 57.45499788 -0.36920489 62.33112526 -0.37950897 C64.18207748 -0.38684262 66.03301696 -0.40116184 67.88385582 -0.42292023 C78.65473746 -0.54439061 87.82871355 -0.00757839 98 4 C99.06615036 4.3888739 100.13230072 4.7777478 101.23075867 5.17840576 C108.738018 7.95797212 114.76062588 12.04201393 121 17 C122.26070312 17.96486328 122.26070312 17.96486328 123.546875 18.94921875 C135.65826138 29.07418348 145.21727399 47.03817042 147.36694336 62.66796875 C148.01362634 70.70298705 148.15484461 78.69094473 148.125 86.75 C148.12311676 87.41898315 148.12123352 88.08796631 148.11929321 88.77722168 C148.08927202 97.93681013 147.98504987 107.09484486 147.6875 116.25 C147.66510254 117.18166992 147.64270508 118.11333984 147.61962891 119.07324219 C147.24137603 128.51073695 144.86910019 136.99199651 140.5625 145.375 C139.98628906 146.51710937 139.41007813 147.65921875 138.81640625 148.8359375 C137.09890736 151.82770976 135.16393507 154.32609297 133 157 C132.67 157.99 132.34 158.98 132 160 C130.0625 162.1875 130.0625 162.1875 128 164 C127.34 164 126.68 164 126 164 C125.67 164.99 125.34 165.98 125 167 C124.34 167 123.68 167 123 167 C122.67 167.99 122.34 168.98 122 170 C117.39890715 174.21675335 111.40310435 179 105 179 C105 179.66 105 180.32 105 181 C103.54418264 181.6102043 102.08514232 182.21271846 100.625 182.8125 C99.81289062 183.14894531 99.00078125 183.48539063 98.1640625 183.83203125 C89.30791623 187.10115191 81.49488569 188.49936216 72.03125 188.73046875 C70.18061951 188.79068962 70.18061951 188.79068962 68.29260254 188.85212708 C65.68402746 188.93458758 63.07524468 189.01069519 60.46630859 189.08081055 C56.56685171 189.18570176 52.66832986 189.30871849 48.76953125 189.43554688 C36.23281278 189.82627513 23.69922566 190.07779769 11.15625 190.11328125 C10.04229858 190.11861374 8.92834717 190.12394623 7.78063965 190.12944031 C6.76828247 190.12837784 5.75592529 190.12731537 4.71289062 190.1262207 C3.82299438 190.12628616 2.93309814 190.12635162 2.01623535 190.12641907 C0 190 0 190 -1 189 C-1.09986679 187.39572476 -1.13080864 185.78706686 -1.1328125 184.1796875 C-1.13482666 183.17558838 -1.13684082 182.17148926 -1.13891602 181.13696289 C-1.13432373 180.06051514 -1.12973145 178.98406738 -1.125 177.875 C-1.12234131 176.79017334 -1.11968262 175.70534668 -1.11694336 174.58764648 C-0.97840589 150.97840589 -0.97840589 150.97840589 1 149 C13.86007932 147.21460495 27.11920406 147.92095697 40.0625 148 C68.53416119 149.5876878 68.53416119 149.5876878 94 139 C103.75972327 129.19231741 105.22917563 118.26625925 105.27856445 104.8371582 C105.26442505 103.03057739 105.26442505 103.03057739 105.25 101.1875 C105.24250732 99.92446045 105.23501465 98.6614209 105.22729492 97.36010742 C105.60377981 74.73246917 105.60377981 74.73246917 98 54 C98 53.34 98 52.68 98 52 C97.34 52 96.68 52 96 52 C94.33333333 50.33333333 92.66666667 48.66666667 91 47 C81.49490212 39.93907015 69.6930219 40.54509804 58.43359375 40.5234375 C56.74633045 40.50910652 55.05907875 40.49334578 53.37184143 40.47622681 C48.9615609 40.43463035 44.55135243 40.40945604 40.14093018 40.38873291 C33.0509406 40.35271711 25.96112777 40.29205902 18.87132454 40.23024368 C16.39561641 40.21112686 13.91995613 40.19942301 11.44419861 40.18881226 C9.93993013 40.17860862 8.43566267 40.16825142 6.93139648 40.15771484 C5.61364731 40.15121918 4.29589813 40.14472351 2.93821716 40.13803101 C0 40 0 40 -1 39 C-1.10033269 36.8873344 -1.13081502 34.77129577 -1.1328125 32.65625 C-1.13410156 31.3465625 -1.13539063 30.036875 -1.13671875 28.6875 C-1.13462402 27.99914062 -1.1325293 27.31078125 -1.13037109 26.6015625 C-1.12509298 24.53638101 -1.13027747 22.47142404 -1.13671875 20.40625 C-1.13605662 19.0729162 -1.13477268 17.73958253 -1.1328125 16.40625 C-1.13168457 15.20291016 -1.13055664 13.99957031 -1.12939453 12.75976562 C-1.03026041 9.87926482 -0.82131978 7.12106007 -0.49191284 4.26501465 C-0.40026793 3.46362816 -0.30862301 2.66224167 -0.21420097 1.83657074 C-0.14351465 1.2305024 -0.07282833 0.62443405 0 0 Z " fill="#24313A" transform="translate(143,106)"/>
<path d="M0 0 C1.38856201 -0.00676758 1.38856201 -0.00676758 2.80517578 -0.01367188 C18.70786277 0.02036277 18.70786277 0.02036277 20.8125 2.125 C20.91533461 3.85821963 20.94771058 5.59564944 20.95294189 7.33190918 C20.95865204 8.46145523 20.96436218 9.59100128 20.97024536 10.754776 C20.97192215 12.63089821 20.97192215 12.63089821 20.97363281 14.54492188 C20.98108017 16.5085392 20.98108017 16.5085392 20.98867798 18.51182556 C21.0018373 22.11816416 21.00825618 25.72448409 21.01268864 29.33084297 C21.01561951 31.58951696 21.0197248 33.84818587 21.02419281 36.1068573 C21.03788979 43.18848157 21.04754022 50.27009422 21.0513947 57.35173082 C21.05585221 65.4955974 21.07328234 73.63929418 21.1023953 81.78310919 C21.1241531 88.09162653 21.13410677 94.40009667 21.13543582 100.70865107 C21.13647575 104.467938 21.1422051 108.22706585 21.16025543 111.98631287 C21.338178 151.30020304 21.338178 151.30020304 14.125 164.6875 C13.80466797 165.32623047 13.48433594 165.96496094 13.15429688 166.62304688 C12.39327976 168.13372263 11.60614515 169.63120762 10.8125 171.125 C10.1525 171.125 9.4925 171.125 8.8125 171.125 C8.55855469 171.8675 8.30460937 172.61 8.04296875 173.375 C4.53140743 181.22306086 -4.02047347 187.00217517 -11.5 190.8125 C-20.41896042 193.98704523 -28.59913955 194.33136055 -38 193.8125 C-39.65805664 193.73999023 -39.65805664 193.73999023 -41.34960938 193.66601562 C-46.06949155 193.44071611 -50.56475298 193.14825201 -55.1875 192.125 C-53.76801647 187.66376604 -51.31994242 184.79839148 -48.125 181.5 C-47.12703687 180.43403873 -46.13097368 179.36629586 -45.13671875 178.296875 C-44.63962402 177.76384766 -44.1425293 177.23082031 -43.63037109 176.68164062 C-30.16944543 162.15932894 -23.82444491 148.4029881 -23.97631836 128.54370117 C-23.9776326 127.31320541 -23.97894684 126.08270966 -23.9803009 124.81492615 C-23.984549 122.15486979 -23.99240165 119.49512679 -24.00660515 116.83513451 C-24.02904612 112.61790022 -24.0369907 108.40071094 -24.04310608 104.1834259 C-24.05445545 97.50436825 -24.07515323 90.82537866 -24.10000378 84.14635879 C-24.14436887 72.20568266 -24.17766266 60.26498422 -24.20024782 48.32424718 C-24.20858685 44.14359083 -24.22254137 39.96300389 -24.24122036 35.78238142 C-24.2544967 32.55309276 -24.26127349 29.32378777 -24.26928711 26.09448242 C-24.27602448 24.95487061 -24.28276184 23.81525879 -24.28970337 22.64111328 C-24.29983296 15.41979185 -23.9026583 8.31068836 -23.1875 1.125 C-15.44285192 0.26916839 -7.78824235 0.01565738 0 0 Z " fill="#1F2D36" transform="translate(336.1875,104.875)"/>
<path d="M0 0 C1.93791053 0.00688309 3.87582265 0.01333045 5.81373596 0.01937866 C11.03823779 0.03717087 16.26268601 0.06173879 21.48715067 0.08813882 C25.85423399 0.10972891 30.22132823 0.12833428 34.58842456 0.14707059 C44.88270848 0.19143519 55.17695231 0.24171249 65.47119141 0.29541016 C76.09424103 0.35069157 86.71729693 0.39461278 97.34041893 0.43326122 C106.47190116 0.46695346 115.60332797 0.50826006 124.73474967 0.55558652 C130.18461212 0.58371495 135.63444646 0.60877444 141.0843544 0.6262455 C146.1980426 0.64291648 151.31159483 0.66903855 156.42519951 0.70255661 C158.30417565 0.71325402 160.18317467 0.72054028 162.06217766 0.72422218 C164.62014494 0.72976032 167.17774456 0.74743251 169.73562622 0.76826477 C170.85899232 0.76638585 170.85899232 0.76638585 172.00505269 0.76446897 C175.71428884 0.80828571 177.3175183 0.93995035 180.48779297 3.0534668 C180.77996166 5.58393503 180.88412437 7.8663956 180.85107422 10.3972168 C180.85182198 11.48456116 180.85182198 11.48456116 180.85258484 12.59387207 C180.85024338 14.12714376 180.84051052 15.66041921 180.82397461 17.19360352 C180.8003842 19.54437524 180.80341218 21.89401309 180.81005859 24.24487305 C180.80448182 25.73316108 180.79737194 27.22144432 180.78857422 28.7097168 C180.78948563 29.41495483 180.79039703 30.12019287 180.79133606 30.84680176 C180.71882518 35.82243458 180.71882518 35.82243458 178.48779297 38.0534668 C175.97106934 38.30070496 175.97106934 38.30070496 172.70458984 38.29638672 C170.83440437 38.30094124 170.83440437 38.30094124 168.92643738 38.30558777 C167.51980467 38.29861499 166.11317322 38.29138723 164.70654297 38.28393555 C163.20376103 38.28307333 161.70097846 38.28300129 160.19819641 38.28364563 C156.01401164 38.28246714 151.82996297 38.26781689 147.6458168 38.2507019 C144.0891116 38.23767534 140.53240913 38.23210964 136.97568607 38.22626305 C79.81265318 38.12623042 22.64849245 37.54984871 -34.51220703 37.0534668 C-34.56180813 32.73015901 -34.59802143 28.40700395 -34.62207031 24.08349609 C-34.63210055 22.61406568 -34.64572804 21.14465509 -34.66308594 19.67529297 C-34.68746602 17.55781143 -34.69871989 15.44059481 -34.70751953 13.32299805 C-34.71799316 12.05045166 -34.7284668 10.77790527 -34.73925781 9.46679688 C-34.51907285 6.15668301 -33.80819522 4.05961938 -32.51220703 1.0534668 C-21.65690825 -0.03756128 -10.89708798 -0.06032889 0 0 Z " fill="#27343D" transform="translate(176.51220703125,45.946533203125)"/>
<path d="M0 0 C0.84997559 0.04302246 1.69995117 0.08604492 2.57568359 0.13037109 C8.68109668 0.49359668 8.68109668 0.49359668 9.8125 1.625 C9.91311647 4.59206135 9.94864878 7.53588384 9.94189453 10.50341797 C9.94364685 11.43508789 9.94539917 12.36675781 9.94720459 13.32666016 C9.95162563 16.42352125 9.94868376 19.52032577 9.9453125 22.6171875 C9.94598558 24.76091523 9.94695564 26.90464289 9.94821167 29.04837036 C9.94968908 33.54934412 9.94753314 38.05029807 9.94287109 42.55126953 C9.93718064 48.32748941 9.94044821 54.10366275 9.94644356 59.87988091 C9.95005386 64.30986889 9.9489083 68.73984582 9.94631577 73.16983414 C9.94564744 75.29974498 9.94647163 77.42965682 9.94879532 79.5595665 C9.95132874 82.5356691 9.94747111 85.51169601 9.94189453 88.48779297 C9.94391876 89.37310699 9.94594299 90.25842102 9.94802856 91.17056274 C9.94520874 91.98100037 9.94238892 92.79143799 9.93948364 93.62643433 C9.93910662 94.33030714 9.93872959 95.03417995 9.93834114 95.75938225 C9.8125 97.625 9.8125 97.625 8.8125 100.625 C-1.7475 100.625 -12.3075 100.625 -23.1875 100.625 C-23.21004897 87.73427433 -23.22841389 74.84356166 -23.23931217 61.95282078 C-23.24454151 55.96780734 -23.25164008 49.98280804 -23.26293945 43.99780273 C-23.27376653 38.22716571 -23.27977645 32.45654232 -23.28237724 26.68589592 C-23.28423182 24.47897057 -23.28785304 22.272046 -23.29323006 20.06512642 C-23.3004381 16.98553959 -23.30149104 13.90600986 -23.30102539 10.82641602 C-23.30462067 9.90428818 -23.30821594 8.98216034 -23.31192017 8.03208923 C-23.30155216 1.73905216 -23.30155216 1.73905216 -22.1875 0.625 C-14.82544681 -0.6346669 -7.42263572 -0.38347263 0 0 Z " fill="#2B3A44" transform="translate(167.1875,149.375)"/>
<path d="M0 0 C0.94356071 3.4258512 1.19930768 5.57340662 0 9 C-2.4375 11.125 -2.4375 11.125 -5 13 C-5.66 13.99 -6.32 14.98 -7 16 C-6.67 16.99 -6.34 17.98 -6 19 C-5.01 19 -4.02 19 -3 19 C-3 19.66 -3 20.32 -3 21 C-4.95585325 22.00484204 -6.91476237 23.00373805 -8.875 24 C-9.96554687 24.556875 -11.05609375 25.11375 -12.1796875 25.6875 C-15 27 -15 27 -17 27 C-17 27.66 -17 28.32 -17 29 C-20.50776784 30.60355101 -23.14354879 31.22036864 -27 31 C-27 31.66 -27 32.32 -27 33 C-41.1787246 35.92667061 -55.2317621 36.14473063 -69.6418457 36.11352539 C-71.48610431 36.11324275 -73.33036304 36.11340275 -75.17462158 36.1139679 C-80.14271161 36.11425288 -85.11077711 36.1084047 -90.07886147 36.10139394 C-95.28517292 36.09511041 -100.49148503 36.09455266 -105.69779968 36.09336853 C-115.53946943 36.09026988 -125.38112797 36.08207639 -135.2227928 36.07201904 C-146.43448766 36.0608122 -157.64618307 36.05533597 -168.85788214 36.05032361 C-191.90526117 36.03989245 -214.95262948 36.02211835 -238 36 C-238 43.92 -238 51.84 -238 60 C-234.04 60 -230.08 60 -226 60 C-222.72930717 61.47507954 -222.72930717 61.47507954 -220 63 C-217.36194459 63.28224289 -214.96350936 63.41709985 -212.33108521 63.39872742 C-211.57866857 63.40537424 -210.82625194 63.41202107 -210.05103481 63.41886932 C-207.54055721 63.43745859 -205.03055792 63.43489683 -202.52001953 63.43237305 C-200.71619496 63.4413927 -198.91237652 63.45172043 -197.10856628 63.46325684 C-192.21856547 63.490829 -187.32868094 63.50011167 -182.43861246 63.50611091 C-177.32563578 63.51549397 -172.21274599 63.54169734 -167.099823 63.56611633 C-157.42085618 63.60978681 -147.74190622 63.63833044 -138.06287086 63.66143972 C-127.04233518 63.68848841 -116.02188688 63.73240015 -105.00141358 63.77772844 C-82.3343231 63.8705826 -59.66720521 63.94225985 -37 64 C-37 64.33 -37 64.66 -37 65 C-105.64 65 -174.28 65 -245 65 C-245 45.19216418 -245 45.19216418 -244.5625 37.5 C-244.52318359 36.67886719 -244.48386719 35.85773438 -244.44335938 35.01171875 C-244.12614346 29.12614346 -244.12614346 29.12614346 -243 28 C-240.71594726 27.90508821 -238.42888863 27.88259318 -236.14286804 27.88647461 C-235.41700196 27.88632575 -234.69113587 27.88617689 -233.94327384 27.88602352 C-231.49169481 27.88672231 -229.04018918 27.89458454 -226.58862305 27.90234375 C-224.83769778 27.90426165 -223.08677196 27.90572605 -221.33584595 27.9067688 C-217.55225815 27.90993991 -213.76869243 27.91622452 -209.98511314 27.92483521 C-203.98526042 27.9383431 -197.98541511 27.94425029 -191.98554993 27.94897461 C-178.14009043 27.96104026 -164.29464975 27.98295659 -150.44920349 28.00520325 C-137.81149246 28.02544537 -125.17378837 28.04352609 -112.53606445 28.05341816 C-106.59141335 28.05835923 -100.64679734 28.06815915 -94.70216024 28.08184814 C-90.96894803 28.08940212 -87.23574036 28.0926423 -83.50252151 28.0948143 C-81.79354506 28.09665914 -80.08456928 28.10020363 -78.37560081 28.10574722 C-69.35690329 28.134034 -60.35540598 28.01131383 -51.34407043 27.62670898 C-50.12761181 27.58256536 -50.12761181 27.58256536 -48.88657826 27.53752995 C-34.59725863 26.84222923 -17.61882188 20.71622202 -7 11 C-4.94178415 8.2277729 -4.94178415 8.2277729 -3.1875 5.25 C-2.58292969 4.26515625 -1.97835937 3.2803125 -1.35546875 2.265625 C-0.90816406 1.51796875 -0.46085938 0.7703125 0 0 Z " fill="#2E3439" transform="translate(387,290)"/>
<path d="M0 0 C13.53 0 27.06 0 41 0 C41.0225857 18.13283887 41.04100176 36.26566571 41.05181217 54.39851475 C41.05696536 62.81817186 41.06398945 71.2378196 41.07543945 79.6574707 C41.08541614 86.99723614 41.09186054 94.33699479 41.09408849 101.67676681 C41.09539053 105.56200656 41.09844428 109.44722689 41.10573006 113.3324604 C41.11253736 116.99232885 41.11460739 120.65216996 41.11310768 124.31204414 C41.11351225 126.28952509 41.11888285 128.26700308 41.12442017 130.24447632 C41.11066305 142.12956631 41.11066305 142.12956631 40 147 C39.34 147.33 38.68 147.66 38 148 C37.97314905 145.52076199 37.95323453 143.0418116 37.9375 140.5625 C37.92912109 139.85544922 37.92074219 139.14839844 37.91210938 138.41992188 C37.90346412 136.61306441 37.94779989 134.80612397 38 133 C38.33 132.67 38.66 132.34 39 132 C39.09511266 129.35261911 39.12555635 126.73140999 39.11352539 124.08374023 C39.11367142 123.25454071 39.11381744 122.42534119 39.1139679 121.5710144 C39.11326851 118.81684802 39.10547493 116.06274839 39.09765625 113.30859375 C39.09579216 111.40430234 39.09436822 109.50001045 39.09336853 107.59571838 C39.08954263 102.57332037 39.07971173 97.55095108 39.06866455 92.52856445 C39.05845198 87.4077188 39.05387124 82.28686852 39.04882812 77.16601562 C39.03808953 67.11066443 39.02101224 57.0553346 39 47 C38.34 47 37.68 47 37 47 C36.97107143 43.04168191 36.95322573 39.08339083 36.9375 35.125 C36.92912109 33.99707031 36.92074219 32.86914062 36.91210938 31.70703125 C36.90888672 30.63066406 36.90566406 29.55429688 36.90234375 28.4453125 C36.89710693 27.45031738 36.89187012 26.45532227 36.88647461 25.43017578 C37 23 37 23 38 21 C38.16774849 15.96754528 37.84311788 12.05870725 37 7 C27.1 7 17.2 7 7 7 C7.02094727 11.10711426 7.04189453 15.21422852 7.06347656 19.44580078 C7.12989306 33.04833726 7.1741982 46.65087144 7.20724869 60.25352669 C7.22781341 68.49706453 7.25581644 76.74044801 7.30175781 84.98388672 C7.34181327 92.17466337 7.36747699 99.36532813 7.37635398 106.55621326 C7.38153733 110.3585305 7.39359035 114.16052785 7.42292023 117.96274185 C7.45038644 121.55297625 7.45838328 125.14276377 7.45243073 128.73309326 C7.45402917 130.6556066 7.47538672 132.57807303 7.49768066 134.50045776 C7.45655268 143.32941502 5.78944351 150.68310655 3 159 C2.34 159 1.68 159 1 159 C0.7525 159.825 0.505 160.65 0.25 161.5 C-1.18704811 165.52373471 -3.02354515 169.21979024 -5 173 C-5.66 173 -6.32 173 -7 173 C-7 173.66 -7 174.32 -7 175 C-7.66 175 -8.32 175 -9 175 C-9.433125 176.36125 -9.433125 176.36125 -9.875 177.75 C-10.76531776 180.32202908 -11.71494413 182.61346766 -13 185 C-12.38125 184.814375 -11.7625 184.62875 -11.125 184.4375 C-9 184 -9 184 -7 185 C-7.33 185.66 -7.66 186.32 -8 187 C-9.65 187 -11.3 187 -13 187 C-13 187.66 -13 188.32 -13 189 C-18.94 189 -24.88 189 -31 189 C-28.25597819 184.42663031 -25.45850682 181.10881168 -21.83984375 177.28125 C-19.92615754 174.90844163 -19.10430442 172.81664689 -18 170 C-16.4140625 168.0078125 -16.4140625 168.0078125 -14.625 166.125 C-11.43682422 162.62399695 -9.18352434 159.19236673 -7 155 C-6.01 155 -5.02 155 -4 155 C-3.87625 154.401875 -3.7525 153.80375 -3.625 153.1875 C-3 151 -3 151 -1 148 C-0.68713921 145.22113462 -0.68713921 145.22113462 -0.7215271 142.02058411 C-0.71036362 140.77116531 -0.69920013 139.52174652 -0.68769836 138.23446655 C-0.68533333 136.84747344 -0.68315769 135.46048 -0.68115234 134.07348633 C-0.67185557 132.61492862 -0.66168728 131.15637624 -0.65071106 129.6978302 C-0.62336857 125.73533563 -0.60824912 121.7728767 -0.59528303 117.81031251 C-0.57967104 113.67026819 -0.55287469 109.53029685 -0.5272522 105.39030457 C-0.48043014 97.54933671 -0.44370265 89.70835519 -0.41057932 81.86731881 C-0.37238212 72.94113462 -0.32296569 64.01502366 -0.27259517 55.08890116 C-0.16922432 36.72598139 -0.08146188 18.36303093 0 0 Z " fill="#0B1217" transform="translate(314,107)"/>
<path d="M0 0 C13.2 0 26.4 0 40 0 C40 53.79 40 107.58 40 163 C39.34 162.67 38.68 162.34 38 162 C37.98969254 160.85457733 37.97938507 159.70915466 37.96876526 158.52902222 C37.42067755 93.13721528 37.42067755 93.13721528 36.5 27.75 C36.48212433 26.64170837 36.46424866 25.53341675 36.4458313 24.39154053 C36.39632778 21.3806893 36.3402343 18.37005337 36.28125 15.359375 C36.26770981 14.50399139 36.25416962 13.64860779 36.24021912 12.76730347 C36.5008514 9.07952312 36.5008514 9.07952312 35 6 C32.852551 5.98318911 30.70448048 6.03748777 28.55859375 6.12109375 C26.60083008 6.19360352 26.60083008 6.19360352 24.60351562 6.26757812 C23.21483925 6.32410831 21.82616743 6.38075041 20.4375 6.4375 C19.04493979 6.49070547 17.65236174 6.54344596 16.25976562 6.59570312 C12.83964019 6.72588091 9.41977076 6.8608618 6 7 C6.00699732 7.79715266 6.01399464 8.59430532 6.02120399 9.41561413 C6.19112416 28.85606055 6.3493649 48.29657038 6.49477577 67.737216 C6.5653753 77.13875037 6.63985635 86.54022344 6.72363281 95.94165039 C6.79668401 104.14060886 6.86229171 112.33958823 6.91914403 120.53867561 C6.94947246 124.87576786 6.98340376 129.21276135 7.02626419 133.54974937 C7.06658135 137.64132716 7.09686024 141.73286265 7.11981392 145.82457352 C7.12988884 147.31720797 7.14346705 148.80982408 7.16103554 150.30238914 C7.31755113 163.91178982 6.40206171 175.8082477 0 188 C-0.58974609 189.22396484 -0.58974609 189.22396484 -1.19140625 190.47265625 C-3.76454869 195.5594956 -6.86927949 200.20363574 -12 203 C-12.99 202.67 -13.98 202.34 -15 202 C-15.6875 199.9375 -15.6875 199.9375 -16 198 C-15.25943359 197.43732422 -15.25943359 197.43732422 -14.50390625 196.86328125 C-10.56436517 193.86549905 -10.56436517 193.86549905 -8.1875 189.6875 C-8.125625 188.800625 -8.06375 187.91375 -8 187 C-4.87096774 170.80645161 -4.87096774 170.80645161 -1 165 C-0.6862773 161.93618735 -0.6862773 161.93618735 -0.7215271 158.37519836 C-0.7157347 157.69884895 -0.7099423 157.02249954 -0.70397437 156.32565469 C-0.68694141 154.05470159 -0.68409509 151.78395131 -0.68115234 149.51293945 C-0.67185643 147.88689677 -0.66168826 146.26085887 -0.65071106 144.63482666 C-0.62335901 140.21573393 -0.60824627 135.79667316 -0.59528303 131.37751794 C-0.57967522 126.76101521 -0.55287755 122.14457798 -0.5272522 117.52812195 C-0.48042271 108.78404412 -0.44369881 100.03995402 -0.41057932 91.29581469 C-0.37238736 81.3418433 -0.32296957 71.38793763 -0.27259517 61.43402159 C-0.16921328 40.95605683 -0.08145531 20.47806453 0 0 Z " fill="#070D14" transform="translate(395,107)"/>
<path d="M0 0 C3.95728741 3.23228819 5.788653 7.3587287 6.43359375 12.3671875 C6.44180257 19.73870441 6.00416294 24.74349541 2 31 C1.34 31 0.68 31 0 31 C-0.33 31.99 -0.66 32.98 -1 34 C-1.66 34 -2.32 34 -3 34 C-3 34.66 -3 35.32 -3 36 C-15.24066511 41.51691949 -15.24066511 41.51691949 -21.9609375 39.375 C-28.927963 36.38531856 -33.22932373 31.08440383 -36.9375 24.625 C-38.74905513 18.44440014 -38.94423993 13.32125649 -36.5 7.3125 C-32.59444096 1.49541735 -26.86932577 -3.55547887 -20.1328125 -5.6953125 C-13.14249837 -6.6939288 -5.79843471 -3.76295647 0 0 Z " fill="#16232C" transform="translate(429,48)"/>
<path d="M0 0 C69.63 0 139.26 0 211 0 C211 11.00504935 210.68647612 22.01638212 210 33 C185.58 33 161.16 33 136 33 C136 32.67 136 32.34 136 32 C156.90032461 30.92304755 156.90032461 30.92304755 166.125 31 C175.01534996 31.06884121 183.57115433 30.42863237 192.25 28.5 C195.52456425 27.90462468 198.79662962 27.58839196 202.109375 27.28125 C204.00787258 27.19058268 204.00787258 27.19058268 205 26 C205.10022387 23.93951522 205.12966196 21.87541556 205.125 19.8125 C205.12757813 18.68457031 205.13015625 17.55664062 205.1328125 16.39453125 C205.00674723 13.17245123 204.55914832 10.1702655 204 7 C193.76976737 6.20757677 183.60856961 5.8372162 173.34521484 5.79467773 C171.84327446 5.78506381 170.34133658 5.77505189 168.83940125 5.76467896 C164.80336352 5.7379339 160.76731456 5.71674378 156.73123884 5.69667697 C152.46205202 5.67451505 148.19289742 5.6472523 143.92373657 5.62062073 C136.74376897 5.57653023 129.56378913 5.53573945 122.38378906 5.49731445 C112.36108357 5.44366874 102.33842174 5.38388126 92.31575847 5.32291877 C84.42665906 5.27519248 76.5375485 5.22935464 68.6484375 5.18359375 C67.82372814 5.178777 66.99901877 5.17396024 66.14931822 5.16899753 C45.09926215 5.04635365 24.05046985 4.97052193 3 5 C3.06432504 5.736917 3.12865007 6.473834 3.19492435 7.23308182 C3.27932994 8.20040615 3.36373552 9.16773048 3.45069885 10.16436768 C3.57619031 11.6023213 3.57619031 11.6023213 3.70421696 13.06932449 C3.87972717 15.08612745 4.05345913 17.10308528 4.22631836 19.12011719 C4.30503174 20.00344727 4.38374512 20.88677734 4.46484375 21.796875 C4.543396 22.69760742 4.62194824 23.59833984 4.70288086 24.52636719 C4.97139439 26.76184712 5.39662418 28.83403551 6 31 C7.98 31 9.96 31 12 31 C12 31.33 12 31.66 12 32 C5.565 32.495 5.565 32.495 -1 33 C-1.02758594 30.12493156 -1.04711316 27.25014082 -1.0625 24.375 C-1.07087891 23.58609375 -1.07925781 22.7971875 -1.08789062 21.984375 C-1.11733134 14.56531524 -0.53380082 7.47321144 0 0 Z " fill="#091117" transform="translate(145,49)"/>
<path d="M0 0 C18.27624745 -0.04010881 18.27624745 -0.04010881 26.12304688 -0.04882812 C31.45761115 -0.05478415 36.79215811 -0.06179704 42.12670898 -0.07543945 C46.43204118 -0.08637969 50.73735478 -0.09230022 55.04269981 -0.09487724 C56.67756124 -0.09671156 58.31242175 -0.10029312 59.94727516 -0.10573006 C80.60907555 -0.17165237 80.60907555 -0.17165237 86 1 C86.495 1.99 86.495 1.99 87 3 C86.01 3 85.02 3 84 3 C84 4.32 84 5.64 84 7 C58.26 7 32.52 7 6 7 C5.67 15.25 5.34 23.5 5 32 C10.82011719 31.96519531 10.82011719 31.96519531 16.7578125 31.9296875 C20.55745111 31.91404536 24.35708599 31.90192663 28.15673828 31.89013672 C30.77719759 31.88014112 33.39764593 31.86654017 36.01806641 31.84912109 C39.80634283 31.82458749 43.59447052 31.81345212 47.3828125 31.8046875 C48.53548615 31.79436493 49.68815979 31.78404236 50.87576294 31.77340698 C59.06299016 31.77230282 66.93342255 32.61281953 75 34 C75.91701691 34.10416229 76.83403381 34.20832458 77.77883911 34.31564331 C78.5118222 34.54148102 79.2448053 34.76731873 80 35 C80.99 36.98 80.99 36.98 82 39 C54.94 38.67 27.88 38.34 0 38 C0 25.46 0 12.92 0 0 Z " fill="#080F16" transform="translate(144,107)"/>
<path d="M0 0 C1.93791053 0.00688309 3.87582265 0.01333045 5.81373596 0.01937866 C11.03823779 0.03717087 16.26268601 0.06173879 21.48715067 0.08813882 C25.85423399 0.10972891 30.22132823 0.12833428 34.58842456 0.14707059 C44.88270848 0.19143519 55.17695231 0.24171249 65.47119141 0.29541016 C76.09424103 0.35069157 86.71729693 0.39461278 97.34041893 0.43326122 C106.47190116 0.46695346 115.60332797 0.50826006 124.73474967 0.55558652 C130.18461212 0.58371495 135.63444646 0.60877444 141.0843544 0.6262455 C146.1980426 0.64291648 151.31159483 0.66903855 156.42519951 0.70255661 C158.30417565 0.71325402 160.18317467 0.72054028 162.06217766 0.72422218 C164.62014494 0.72976032 167.17774456 0.74743251 169.73562622 0.76826477 C170.85899232 0.76638585 170.85899232 0.76638585 172.00505269 0.76446897 C175.71428884 0.80828571 177.3175183 0.93995035 180.48779297 3.0534668 C180.77996166 5.58393503 180.88412437 7.8663956 180.85107422 10.3972168 C180.85182198 11.48456116 180.85182198 11.48456116 180.85258484 12.59387207 C180.85024338 14.12714376 180.84051052 15.66041921 180.82397461 17.19360352 C180.8003842 19.54437524 180.80341218 21.89401309 180.81005859 24.24487305 C180.80448182 25.73316108 180.79737194 27.22144432 180.78857422 28.7097168 C180.78948563 29.41495483 180.79039703 30.12019287 180.79133606 30.84680176 C180.71882518 35.82243458 180.71882518 35.82243458 178.48779297 38.0534668 C175.97106934 38.30070496 175.97106934 38.30070496 172.70458984 38.29638672 C170.83440437 38.30094124 170.83440437 38.30094124 168.92643738 38.30558777 C167.51980467 38.29861499 166.11317322 38.29138723 164.70654297 38.28393555 C163.20376103 38.28307333 161.70097846 38.28300129 160.19819641 38.28364563 C156.01401164 38.28246714 151.82996297 38.26781689 147.6458168 38.2507019 C144.0891116 38.23767534 140.53240913 38.23210964 136.97568607 38.22626305 C79.81265318 38.12623042 22.64849245 37.54984871 -34.51220703 37.0534668 C-34.56180813 32.73015901 -34.59802143 28.40700395 -34.62207031 24.08349609 C-34.63210055 22.61406568 -34.64572804 21.14465509 -34.66308594 19.67529297 C-34.68746602 17.55781143 -34.69871989 15.44059481 -34.70751953 13.32299805 C-34.71799316 12.05045166 -34.7284668 10.77790527 -34.73925781 9.46679688 C-34.51907285 6.15668301 -33.80819522 4.05961938 -32.51220703 1.0534668 C-21.65690825 -0.03756128 -10.89708798 -0.06032889 0 0 Z M-31.51220703 3.0534668 C-32.29628433 14.03054901 -32.51220703 25.04841745 -32.51220703 36.0534668 C37.11779297 36.0534668 106.74779297 36.0534668 178.48779297 36.0534668 C179.17426909 25.06984892 179.48779297 14.05851614 179.48779297 3.0534668 C109.85779297 3.0534668 40.22779297 3.0534668 -31.51220703 3.0534668 Z " fill="#828687" transform="translate(176.51220703125,45.946533203125)"/>
<path d="M0 0 C0.84997559 0.04302246 1.69995117 0.08604492 2.57568359 0.13037109 C8.68109668 0.49359668 8.68109668 0.49359668 9.8125 1.625 C9.91311647 4.59206135 9.94864878 7.53588384 9.94189453 10.50341797 C9.94364685 11.43508789 9.94539917 12.36675781 9.94720459 13.32666016 C9.95162563 16.42352125 9.94868376 19.52032577 9.9453125 22.6171875 C9.94598558 24.76091523 9.94695564 26.90464289 9.94821167 29.04837036 C9.94968908 33.54934412 9.94753314 38.05029807 9.94287109 42.55126953 C9.93718064 48.32748941 9.94044821 54.10366275 9.94644356 59.87988091 C9.95005386 64.30986889 9.9489083 68.73984582 9.94631577 73.16983414 C9.94564744 75.29974498 9.94647163 77.42965682 9.94879532 79.5595665 C9.95132874 82.5356691 9.94747111 85.51169601 9.94189453 88.48779297 C9.94391876 89.37310699 9.94594299 90.25842102 9.94802856 91.17056274 C9.94520874 91.98100037 9.94238892 92.79143799 9.93948364 93.62643433 C9.93910662 94.33030714 9.93872959 95.03417995 9.93834114 95.75938225 C9.8125 97.625 9.8125 97.625 8.8125 100.625 C-1.7475 100.625 -12.3075 100.625 -23.1875 100.625 C-23.21004897 87.73427433 -23.22841389 74.84356166 -23.23931217 61.95282078 C-23.24454151 55.96780734 -23.25164008 49.98280804 -23.26293945 43.99780273 C-23.27376653 38.22716571 -23.27977645 32.45654232 -23.28237724 26.68589592 C-23.28423182 24.47897057 -23.28785304 22.272046 -23.29323006 20.06512642 C-23.3004381 16.98553959 -23.30149104 13.90600986 -23.30102539 10.82641602 C-23.30462067 9.90428818 -23.30821594 8.98216034 -23.31192017 8.03208923 C-23.30155216 1.73905216 -23.30155216 1.73905216 -22.1875 0.625 C-14.82544681 -0.6346669 -7.42263572 -0.38347263 0 0 Z M-21.1875 5.625 C-21.1875 36.315 -21.1875 67.005 -21.1875 98.625 C-11.6175 98.625 -2.0475 98.625 7.8125 98.625 C7.8125 96.315 7.8125 94.005 7.8125 91.625 C7.4825 91.625 7.1525 91.625 6.8125 91.625 C6.66682194 86.27636811 6.52460237 80.92765796 6.38525391 75.57885742 C6.33764531 73.76861233 6.28917691 71.95838961 6.23974609 70.14819336 C5.76507668 52.72588828 5.57641453 35.35487374 6.3125 17.9375 C6.36019531 16.73544922 6.40789062 15.53339844 6.45703125 14.29492188 C6.57217575 11.40479484 6.69064469 8.51485044 6.8125 5.625 C3.78421588 4.61557196 1.72521536 4.49600698 -1.44140625 4.4921875 C-2.96991211 4.49025391 -2.96991211 4.49025391 -4.52929688 4.48828125 C-5.59212891 4.49214844 -6.65496094 4.49601563 -7.75 4.5 C-8.81669922 4.49613281 -9.88339844 4.49226562 -10.98242188 4.48828125 C-12.50899414 4.49021484 -12.50899414 4.49021484 -14.06640625 4.4921875 C-15.0004126 4.49331543 -15.93441895 4.49444336 -16.89672852 4.49560547 C-19.2175525 4.47500107 -19.2175525 4.47500107 -21.1875 5.625 Z " fill="#41484F" transform="translate(167.1875,149.375)"/>
<path d="M0 0 C1.38856201 -0.00676758 1.38856201 -0.00676758 2.80517578 -0.01367188 C18.70786277 0.02036277 18.70786277 0.02036277 20.8125 2.125 C20.91100156 3.87856956 20.93882078 5.63613754 20.93948364 7.39247131 C20.94230347 8.5350238 20.94512329 9.67757629 20.94802856 10.85475159 C20.94600433 12.11963913 20.9439801 13.38452667 20.94189453 14.68774414 C20.94324866 16.02464852 20.94502865 17.36155252 20.94720459 18.69845581 C20.95178068 22.34138878 20.94998784 25.98429357 20.9468255 29.62722707 C20.94429914 33.43918387 20.94664056 37.2511382 20.94821167 41.06309509 C20.9500341 47.47330153 20.94762675 53.88349648 20.94287109 60.29370117 C20.93744455 67.69339331 20.9391791 75.09305782 20.9446975 82.49274927 C20.94924594 88.84698442 20.94987022 95.20121127 20.94725883 101.55544752 C20.94570349 105.3495974 20.94548158 109.14373434 20.94879532 112.93788338 C20.9516986 116.51241333 20.94965341 120.08690801 20.94390106 123.66143417 C20.9419616 125.58980512 20.94490758 127.51817907 20.94802856 129.44654846 C20.93349832 135.43570588 20.73468616 141.20430623 19.8125 147.125 C19.4825 147.125 19.1525 147.125 18.8125 147.125 C18.8125 99.275 18.8125 51.425 18.8125 2.125 C5.2825 2.125 -8.2475 2.125 -22.1875 2.125 C-22.16655273 6.57170166 -22.14560547 11.01840332 -22.12402344 15.59985352 C-22.05777409 30.28410567 -22.01336898 44.96836368 -21.98025131 59.65272617 C-21.95963587 68.55672898 -21.93153479 77.4605901 -21.88574219 86.36450195 C-21.84584318 94.12617 -21.82005978 101.88773542 -21.81114602 109.64950317 C-21.80593644 113.75842905 -21.79371345 117.86706134 -21.76457977 121.97589302 C-21.73736209 125.84598187 -21.72906771 129.71565712 -21.73506927 133.5858326 C-21.73397186 135.00357819 -21.72605551 136.42133808 -21.7106781 137.8390007 C-21.57456078 151.03902046 -21.57456078 151.03902046 -26.1875 157.125 C-26.8475 157.125 -27.5075 157.125 -28.1875 157.125 C-27.90287399 156.30807678 -27.61824799 155.49115356 -27.32499695 154.6494751 C-23.29056561 141.25351376 -23.68103911 127.92818133 -23.81485581 114.05095196 C-23.84400259 110.54396314 -23.84891344 107.03693625 -23.85636902 103.52984619 C-23.87384607 96.90050249 -23.91085938 90.27143316 -23.9559657 83.6422255 C-24.02135353 73.93049876 -24.06125324 64.21865878 -24.09602642 54.50677872 C-24.09859583 53.78964887 -24.10116524 53.07251903 -24.10381252 52.33365798 C-24.10891273 50.90229051 -24.11394487 49.47092279 -24.11890715 48.03955483 C-24.13401856 43.88813492 -24.15626297 39.73683455 -24.18496478 35.58548689 C-24.20618544 32.38481103 -24.22113598 29.18410204 -24.23754883 25.98339844 C-24.24742828 24.85478394 -24.25730774 23.72616943 -24.26748657 22.56335449 C-24.29711221 15.36611783 -23.90264494 8.2864758 -23.1875 1.125 C-15.44285192 0.26916839 -7.78824235 0.01565738 0 0 Z " fill="#A4A7A8" transform="translate(336.1875,104.875)"/>
<path d="M0 0 C-0.66 0 -1.32 0 -2 0 C-2 29.7 -2 59.4 -2 90 C11.19136187 89.95861754 11.19136187 89.95861754 23 86 C23 88.31 23 90.62 23 93 C13.43 93 3.86 93 -6 93 C-6 62.31 -6 31.62 -6 0 C-3.50907189 -1.24546405 -2.58919267 -0.7767578 0 0 Z " fill="#10181E" transform="translate(152,155)"/>
<path d="M0 0 C0.99 0.33 1.98 0.66 3 1 C3 1.66 3 2.32 3 3 C3.66 3 4.32 3 5 3 C9.1856543 13.04557033 8.16253901 25.07752666 8.125 35.75 C8.12411377 36.41532745 8.12322754 37.08065491 8.12231445 37.7661438 C8.10250792 50.52593339 7.68351167 63.25868809 7 76 C6.34 76 5.68 76 5 76 C5 76.66 5 77.32 5 78 C3.68 77.67 2.36 77.34 1 77 C1.00523682 75.78231934 1.01047363 74.56463867 1.01586914 73.31005859 C1.03813693 67.66505063 1.05161891 62.02004034 1.0625 56.375 C1.064776 55.36802063 1.067052 54.36104126 1.06939697 53.32354736 C1.09069203 41.11707103 1.09098144 28.94710735 0.17993164 16.76708984 C0.04971719 14.84820422 0.0130243 12.92325459 0 11 C0.66 10.34 1.32 9.68 2 9 C1.67 8.2575 1.34 7.515 1 6.75 C0 4 0 4 0 0 Z " fill="#232B31" transform="translate(283,157)"/>
<path d="M0 0 C1.31471568 0.28151087 2.62675767 0.57553339 3.9375 0.875 C4.66839844 1.03742188 5.39929688 1.19984375 6.15234375 1.3671875 C8 2 8 2 9 4 C9.721875 4.103125 10.44375 4.20625 11.1875 4.3125 C19.38139619 6.3154524 25.94677111 15.99373183 30.10302734 22.80859375 C36.12965525 33.44154386 36.12965525 33.44154386 35.8046875 37.34765625 C35 39 35 39 33 40 C32.67 40.99 32.34 41.98 32 43 C31.34 43 30.68 43 30 43 C28.82845707 40.71070947 27.66261926 38.41881638 26.5 36.125 C26.16613281 35.47402344 25.83226562 34.82304687 25.48828125 34.15234375 C23 29.2265625 23 29.2265625 23 27 C22.34 27 21.68 27 21 27 C20.67 25.68 20.34 24.36 20 23 C19.34 23 18.68 23 18 23 C17.401875 22.071875 16.80375 21.14375 16.1875 20.1875 C13.96174405 16.94425561 12.30677024 15.92894931 9 14 C9 13.01 9 12.02 9 11 C8.34 11 7.68 11 7 11 C7 10.34 7 9.68 7 9 C6.236875 8.773125 5.47375 8.54625 4.6875 8.3125 C1.42695432 6.72014048 0.4726862 5.27263601 -1 2 C-0.67 1.34 -0.34 0.68 0 0 Z " fill="#232B2F" transform="translate(249,117)"/>
<path d="M0 0 C2.12788434 0.01087673 4.25495094 -0.00005262 6.3828125 -0.01269531 C7.75781433 -0.01137589 9.13281567 -0.008818 10.5078125 -0.00488281 C12.33795898 -0.00149902 12.33795898 -0.00149902 14.20507812 0.00195312 C17.74607316 0.27175292 21.96112873 0.62030842 24.6015625 3.26074219 C27.69958931 3.28718876 30.78282707 3.23221933 33.87890625 3.13378906 C37.93537929 3.06604835 40.95394129 3.45813868 44.6015625 5.26074219 C44.6015625 5.59074219 44.6015625 5.92074219 44.6015625 6.26074219 C19.2457248 6.37827263 -6.05957512 6.25183885 -31.3984375 5.26074219 C-28.06076916 0.99074792 -23.51748363 1.24696717 -18.4453125 0.61816406 C-12.30481723 0.01710634 -6.16519243 -0.03752224 0 0 Z " fill="#1C252D" transform="translate(190.3984375,75.7392578125)"/>
<path d="M0 0 C10.56 0 21.12 0 32 0 C33.56972105 4.70916315 34.24993263 6.93892128 34.24723816 11.57176208 C34.25143265 12.65531982 34.25562714 13.73887756 34.25994873 14.85527039 C34.25432922 16.02894669 34.24870972 17.20262299 34.24291992 18.41186523 C34.24481827 19.65970795 34.24671661 20.90755066 34.24867249 22.19320679 C34.25173657 25.60446057 34.24588531 29.01547072 34.23571944 32.42669559 C34.22690835 36.00419374 34.228697 39.58168815 34.2290802 43.15919495 C34.22814471 49.167106 34.21947732 55.17496645 34.20581055 61.18286133 C34.19009345 68.11745873 34.18481229 75.05200071 34.1855461 81.98661464 C34.18622303 89.38403037 34.17927287 96.78142489 34.1700995 104.1788342 C34.16797379 106.30355934 34.16725908 108.42828102 34.16686058 110.55300713 C34.16566403 114.52160454 34.15593027 118.49015647 34.14526367 122.45874023 C34.14571686 123.6303923 34.14617004 124.80204437 34.14663696 126.00920105 C34.10340166 137.02210446 34.10340166 137.02210446 33 142 C32.34 142.33 31.68 142.66 31 143 C30.97314905 140.52076199 30.95323453 138.0418116 30.9375 135.5625 C30.92912109 134.85544922 30.92074219 134.14839844 30.91210938 133.41992188 C30.90346412 131.61306441 30.94779989 129.80612397 31 128 C31.33 127.67 31.66 127.34 32 127 C32.09511266 124.35261911 32.12555635 121.73140999 32.11352539 119.08374023 C32.11367142 118.25454071 32.11381744 117.42534119 32.1139679 116.5710144 C32.11326851 113.81684802 32.10547493 111.06274839 32.09765625 108.30859375 C32.09579216 106.40430234 32.09436822 104.50001045 32.09336853 102.59571838 C32.08954263 97.57332037 32.07971173 92.55095108 32.06866455 87.52856445 C32.05845198 82.4077188 32.05387124 77.28686852 32.04882812 72.16601562 C32.03808953 62.11066443 32.02101224 52.0553346 32 42 C31.34 42 30.68 42 30 42 C29.97107143 38.04168191 29.95322573 34.08339083 29.9375 30.125 C29.92912109 28.99707031 29.92074219 27.86914062 29.91210938 26.70703125 C29.90727539 25.09248047 29.90727539 25.09248047 29.90234375 23.4453125 C29.89448853 21.95281982 29.89448853 21.95281982 29.88647461 20.43017578 C30 18 30 18 31 16 C31.16774849 10.96754528 30.84311788 7.05870725 30 2 C20.1 2 10.2 2 0 2 C0 1.34 0 0.68 0 0 Z " fill="#0D1619" transform="translate(321,112)"/>
<path d="M0 0 C1.98 0 3.96 0 6 0 C5.01 0.495 5.01 0.495 4 1 C4 1.99 4 2.98 4 4 C3.34 4 2.68 4 2 4 C2 34.69 2 65.38 2 97 C11.9 97 21.8 97 32 97 C32 97.66 32 98.32 32 99 C21.44 99 10.88 99 0 99 C0 66.33 0 33.66 0 0 Z " fill="#3A3E40" transform="translate(144,151)"/>
<path d="M0 0 C0.99 0.495 0.99 0.495 2 1 C2.72870472 3.31470912 3.39239518 5.6505947 4 8 C4.495 9.485 4.495 9.485 5 11 C5 15.95 5 20.9 5 26 C-19.42 26 -43.84 26 -69 26 C-69 25.67 -69 25.34 -69 25 C-48.09967539 23.92304755 -48.09967539 23.92304755 -38.875 24 C-29.98465004 24.06884121 -21.42884567 23.42863237 -12.75 21.5 C-9.47543575 20.90462468 -6.20337038 20.58839196 -2.890625 20.28125 C-0.99212742 20.19058268 -0.99212742 20.19058268 0 19 C0.08651611 17.58429877 0.10704904 16.164405 0.09765625 14.74609375 C0.09443359 13.89208984 0.09121094 13.03808594 0.08789062 12.15820312 C0.07951172 11.26037109 0.07113281 10.36253906 0.0625 9.4375 C0.05798828 8.53580078 0.05347656 7.63410156 0.04882812 6.70507812 C0.03700225 4.46998686 0.0205222 2.23502563 0 0 Z " fill="#121C25" transform="translate(350,56)"/>
<path d="M0 0 C0 0.33 0 0.66 0 1 C-3.24975317 1.17171265 -6.49982983 1.33638599 -9.75 1.5 C-10.65105469 1.54769531 -11.55210937 1.59539062 -12.48046875 1.64453125 C-17.44475185 1.89098502 -22.38945756 2.02572253 -27.36035156 2.01367188 C-28.42207581 2.011698 -29.48380005 2.00972412 -30.57769775 2.00769043 C-31.3770575 2.00515259 -32.17641724 2.00261475 -33 2 C-32.99631283 2.75629983 -32.99262566 3.51259966 -32.98882675 4.29181767 C-32.90044642 22.70374565 -32.83427614 41.11563124 -32.79275131 59.52772617 C-32.77213587 68.43172898 -32.74403479 77.3355901 -32.69824219 86.23950195 C-32.65834318 94.00117 -32.63255978 101.76273542 -32.62364602 109.52450317 C-32.61843644 113.63342905 -32.60621345 117.74206134 -32.57707977 121.85089302 C-32.54986209 125.72098187 -32.54156771 129.59065712 -32.54756927 133.4608326 C-32.54647186 134.87857819 -32.53855551 136.29633808 -32.5231781 137.7140007 C-32.38706078 150.91402046 -32.38706078 150.91402046 -37 157 C-37.66 157 -38.32 157 -39 157 C-38.71537399 156.18307678 -38.43074799 155.36615356 -38.13749695 154.5244751 C-34.10306561 141.12851376 -34.49353911 127.80318133 -34.62735581 113.92595196 C-34.65650259 110.41896314 -34.66141344 106.91193625 -34.66886902 103.40484619 C-34.68634607 96.77550249 -34.72335938 90.14643316 -34.7684657 83.5172255 C-34.83385353 73.80549876 -34.87375324 64.09365878 -34.90852642 54.38177872 C-34.91109583 53.66464887 -34.91366524 52.94751903 -34.91631252 52.20865798 C-34.92141273 50.77729051 -34.92644487 49.34592279 -34.93140715 47.91455483 C-34.94651856 43.76313492 -34.96876297 39.61183455 -34.99746478 35.46048689 C-35.01868544 32.25981103 -35.03363598 29.05910204 -35.05004883 25.85839844 C-35.05992828 24.72978394 -35.06980774 23.60116943 -35.07998657 22.43835449 C-35.10961221 15.24111783 -34.71514494 8.1614758 -34 1 C-22.67269834 -0.24912271 -11.38216291 -0.09875075 0 0 Z " fill="#9A9EA1" transform="translate(347,105)"/>
<path d="M0 0 C0.66 0.33 1.32 0.66 2 1 C1.175 1.763125 0.35 2.52625 -0.5 3.3125 C-3.34055197 5.75434142 -3.34055197 5.75434142 -3 9 C-2.34 9.66 -1.68 10.32 -1 11 C-1.0234375 12.91796875 -1.0234375 12.91796875 -1.375 15.1875 C-1.92482631 19.18506068 -2.0857717 22.9687299 -2 27 C-2.66 27 -3.32 27 -4 27 C-3.89386164 29.45224694 -3.89386164 29.45224694 -3 32 C-2.175 32.33 -1.35 32.66 -0.5 33 C0.325 33.33 1.15 33.66 2 34 C2.8125 36.625 2.8125 36.625 3 39 C-2.71031004 36.47167698 -5.85441934 32.02385917 -8.875 26.6875 C-10.67171194 20.79827752 -11.3435187 14.8641023 -8.375 9.25 C-6.03768882 5.71040286 -3.09303321 2.88214458 0 0 Z " fill="#2F3236" transform="translate(401,46)"/>
<path d="M0 0 C0.99 0 1.98 0 3 0 C2.95456055 0.97451614 2.95456055 0.97451614 2.90820312 1.96871948 C2.29048688 15.63227611 1.90613224 29.26736066 1.9375 42.9453125 C1.93894012 43.60895561 1.94038025 44.27259872 1.94186401 44.95635223 C1.95395971 49.67927312 1.97611943 54.40212633 2 59.125 C2.02052359 63.28440771 2.03956122 67.44379733 2.05102539 71.60324097 C2.05854436 74.16179175 2.07058551 76.72033416 2.08764648 79.27883911 C2.09260132 80.97990311 2.09260132 80.97990311 2.09765625 82.71533203 C2.10551147 84.21533249 2.10551147 84.21533249 2.11352539 85.74563599 C2 88 2 88 1 89 C-6.30515925 90.28914575 -13.60258007 90.09350671 -21 90 C-17 88 -17 88 0 88 C0 58.96 0 29.92 0 0 Z " fill="#1E2A33" transform="translate(171,155)"/>
<path d="M0 0 C6.87668346 1.40340479 10.77595623 4.66478231 15.5859375 9.640625 C16.94556266 11.10604668 16.94556266 11.10604668 18.875 11.8125 C22.12466035 13.62848667 23.79502688 15.99878659 26 19 C26 19.99 26 20.98 26 22 C25.34 22.33 24.68 22.66 24 23 C22.86649466 25.01669827 22.86649466 25.01669827 22 27 C21.16180842 25.37750059 20.3295884 23.75191503 19.5 22.125 C19.0359375 21.22007812 18.571875 20.31515625 18.09375 19.3828125 C17 17 17 17 17 15 C16.34 15 15.68 15 15 15 C13.33333333 13.33333333 11.66666667 11.66666667 10 10 C5.51304767 6.66683541 0.3196545 5.4564491 -5 4 C-5 3.67 -5 3.34 -5 3 C-3.02 2.67 -1.04 2.34 1 2 C0.67 1.34 0.34 0.68 0 0 Z " fill="#3A4347" transform="translate(224,143)"/>
<path d="M0 0 C10.56 0 21.12 0 32 0 C33.76430728 5.29292183 34.21207111 8.86865744 33.9765625 14.2421875 C33.93902359 15.39474533 33.93902359 15.39474533 33.90072632 16.57058716 C33.81906758 19.00587704 33.72227287 21.44028887 33.625 23.875 C33.56670491 25.53381921 33.50940289 27.19267363 33.453125 28.8515625 C33.31357039 32.90153952 33.16044602 36.95079901 33 41 C31.515 41.495 31.515 41.495 30 42 C29.97107143 38.04168191 29.95322573 34.08339083 29.9375 30.125 C29.92912109 28.99707031 29.92074219 27.86914062 29.91210938 26.70703125 C29.90727539 25.09248047 29.90727539 25.09248047 29.90234375 23.4453125 C29.89448853 21.95281982 29.89448853 21.95281982 29.88647461 20.43017578 C30 18 30 18 31 16 C31.16774849 10.96754528 30.84311788 7.05870725 30 2 C20.1 2 10.2 2 0 2 C0 1.34 0 0.68 0 0 Z " fill="#172127" transform="translate(321,112)"/>
<path d="M0 0 C1.22133636 0.00444122 2.44267273 0.00888245 3.70101929 0.01345825 C4.37430771 0.0131662 5.04759613 0.01287415 5.74128723 0.01257324 C7.97067067 0.01396856 10.19972145 0.02953887 12.42904663 0.04519653 C13.97318336 0.04892595 15.51732246 0.05177326 17.0614624 0.05377197 C21.12873856 0.06141404 25.19587224 0.08106736 29.26309204 0.10317993 C33.41214063 0.12362607 37.5612122 0.13277105 41.71029663 0.14285278 C49.85359124 0.16431279 57.99676997 0.19845555 66.13998413 0.24050903 C64.13998413 2.24050903 64.13998413 2.24050903 61.2383728 2.45169067 C60.02383423 2.43485229 58.80929565 2.41801392 57.55795288 2.40066528 C56.9067598 2.39546371 56.25556671 2.39026215 55.5846405 2.38490295 C53.49869634 2.3670725 51.41324048 2.33593317 49.32748413 2.30300903 C47.25248532 2.27530384 45.17756254 2.25056102 43.10246277 2.23182678 C41.211495 2.21402248 39.32062492 2.18661493 37.42977905 2.15872192 C34.49486539 2.23168638 31.99786531 2.64403916 29.13998413 3.24050903 C27.2027455 3.33006302 25.2628841 3.37112473 23.32357788 3.37332153 C21.68292358 3.37525513 21.68292358 3.37525513 20.00912476 3.37722778 C18.31046265 3.371427 18.31046265 3.371427 16.57748413 3.36550903 C15.44117554 3.36937622 14.30486694 3.37324341 13.13412476 3.37722778 C12.04164429 3.37593872 10.94916382 3.37464966 9.82357788 3.37332153 C8.8289856 3.3721936 7.83439331 3.37106567 6.80966187 3.36990356 C4.41287304 3.25373547 2.44042004 2.86809738 0.13998413 2.24050903 C-1.52625226 2.20264002 -3.19399183 2.19423059 -4.86001587 2.24050903 C-2.86001587 0.24050903 -2.86001587 0.24050903 0 0 Z " fill="#34404A" transform="translate(170.86001586914063,54.759490966796875)"/>
<path d="M0 0 C1.14756523 0.02474396 1.14756523 0.02474396 2.3183136 0.04998779 C3.9278605 0.08734099 5.53733652 0.12786786 7.14672852 0.17138672 C9.61531517 0.23442694 12.08369162 0.27567674 14.55273438 0.31640625 C16.11852353 0.35543165 17.68428109 0.39575108 19.25 0.4375 C20.35936165 0.45179047 20.35936165 0.45179047 21.49113464 0.46636963 C23.56518555 0.53613281 23.56518555 0.53613281 26.92578125 0.984375 C27.58578125 1.974375 28.24578125 2.964375 28.92578125 3.984375 C14.07578125 3.984375 -0.77421875 3.984375 -16.07421875 3.984375 C-11.28015692 -0.80968683 -6.48981595 -0.1559313 0 0 Z " fill="#111920" transform="translate(175.07421875,77.015625)"/>
<path d="M0 0 C0.66 0 1.32 0 2 0 C2.08302368 0.92280762 2.08302368 0.92280762 2.16772461 1.86425781 C2.42107482 4.65980996 2.67923694 7.45489762 2.9375 10.25 C3.02451172 11.21808594 3.11152344 12.18617187 3.20117188 13.18359375 C3.28818359 14.11816406 3.37519531 15.05273438 3.46484375 16.015625 C3.543396 16.87446289 3.62194824 17.73330078 3.70288086 18.61816406 C3.97709903 20.81641589 4.41066966 22.86718545 5 25 C6.98 25 8.96 25 11 25 C11 25.33 11 25.66 11 26 C4.565 26.495 4.565 26.495 -2 27 C-2.02716089 23.97910522 -2.04691657 20.95845871 -2.0625 17.9375 C-2.07087891 17.08994141 -2.07925781 16.24238281 -2.08789062 15.36914062 C-2.10680891 10.46930512 -1.91535264 5.82000376 -1 1 C-0.67 0.67 -0.34 0.34 0 0 Z " fill="#10161D" transform="translate(146,55)"/>
<path d="M0 0 C0.33 0.66 0.66 1.32 1 2 C1.64453125 2.11214844 2.2890625 2.22429687 2.953125 2.33984375 C3.62859375 2.55769531 4.3040625 2.77554688 5 3 C6.046875 5.06640625 6.046875 5.06640625 6.75 7.5625 C6.99234375 8.38878906 7.2346875 9.21507812 7.484375 10.06640625 C7.65453125 10.70449219 7.8246875 11.34257812 8 12 C7.525625 12.433125 7.05125 12.86625 6.5625 13.3125 C4.76313043 15.02309613 4.76313043 15.02309613 4 18 C3.34 18 2.68 18 2 18 C-0.31 13.05 -2.62 8.1 -5 3 C-3.35 2.01 -1.7 1.02 0 0 Z " fill="#1B1F24" transform="translate(277,142)"/>
<path d="M0 0 C0.66 0 1.32 0 2 0 C2.33 1.65 2.66 3.3 3 5 C-5.78343949 11.88853503 -5.78343949 11.88853503 -11 14 C-11.66 13.67 -12.32 13.34 -13 13 C-13 12.01 -13 11.02 -13 10 C-11.68 10.66 -10.36 11.32 -9 12 C-9.12375 11.278125 -9.2475 10.55625 -9.375 9.8125 C-9 7 -9 7 -6.1875 4.1875 C-3 2 -3 2 0 2 C0 1.34 0 0.68 0 0 Z " fill="#1B2628" transform="translate(400,329)"/>
<path d="M0 0 C-1.53242321 3.44795223 -3.44531701 6.2199038 -6 9 C-8.125 9.6875 -8.125 9.6875 -10 10 C-10.66 10.66 -11.32 11.32 -12 12 C-12 11.34 -12 10.68 -12 10 C-12.99 9.67 -13.98 9.34 -15 9 C-13.33333333 7.33333333 -11.66666667 5.66666667 -10 4 C-9.46375 3.4225 -8.9275 2.845 -8.375 2.25 C-5.73533646 -0.14969413 -3.49607862 0 0 0 Z " fill="#030A0C" transform="translate(247,243)"/>
<path d="M0 0 C0 0.66 0 1.32 0 2 C-7.92 2 -15.84 2 -24 2 C-24 2.66 -24 3.32 -24 4 C-25.32 4 -26.64 4 -28 4 C-28 3.34 -28 2.68 -28 2 C-28.99 1.34 -29.98 0.68 -31 0 C-20.58835953 -1.35081164 -10.42811284 -0.70902441 0 0 Z " fill="#3F4446" transform="translate(176,150)"/>
<path d="M0 0 C1.31471568 0.28151087 2.62675767 0.57553339 3.9375 0.875 C4.66839844 1.03742188 5.39929688 1.19984375 6.15234375 1.3671875 C8 2 8 2 9 4 C9.66 4 10.32 4 11 4 C11 4.66 11 5.32 11 6 C11.66 6.66 12.32 7.32 13 8 C12.01 8.495 12.01 8.495 11 9 C10.01 8.67 9.02 8.34 8 8 C7.67 8.99 7.34 9.98 7 11 C7 10.34 7 9.68 7 9 C6.236875 8.773125 5.47375 8.54625 4.6875 8.3125 C1.42695432 6.72014048 0.4726862 5.27263601 -1 2 C-0.67 1.34 -0.34 0.68 0 0 Z " fill="#0B1217" transform="translate(249,117)"/>
<path d="M0 0 C0.99 0 1.98 0 3 0 C-0.36287592 7.26974647 -5.65507592 13.20261838 -12 18 C-12 16.68 -12 15.36 -12 14 C-11.01 14 -10.02 14 -9 14 C-9.144375 13.29875 -9.28875 12.5975 -9.4375 11.875 C-8.83244468 7.89892219 -6.82884073 6.79150426 -3.7265625 4.4296875 C-1.74439829 2.92760276 -1.74439829 2.92760276 0 0 Z " fill="#3A4047" transform="translate(420,312)"/>
<path d="M0 0 C8.415 1.485 8.415 1.485 17 3 C17 2.34 17 1.68 17 1 C18.32 0.67 19.64 0.34 21 0 C21 0.66 21 1.32 21 2 C26.28 2.33 31.56 2.66 37 3 C37 3.33 37 3.66 37 4 C33.05306991 4.02501955 29.10617158 4.04300863 25.15917969 4.05493164 C23.16860325 4.06233777 21.17804883 4.07505474 19.1875 4.08789062 C12.05736081 4.10589603 5.07423314 3.92522041 -2 3 C-1.34 2.01 -0.68 1.02 0 0 Z M9 0 C9.99 0.495 9.99 0.495 11 1 C10.01 1.495 10.01 1.495 9 2 C9 1.34 9 0.68 9 0 Z " fill="#121A1C" transform="translate(239,350)"/>
<path d="M0 0 C1.32 0.66 2.64 1.32 4 2 C2.85347333 7.96193869 -0.24405333 12.36766577 -4 17 C-4.33 17.99 -4.66 18.98 -5 20 C-5.66 19.67 -6.32 19.34 -7 19 C-6.01 15.535 -6.01 15.535 -5 12 C-4.01 12 -3.02 12 -2 12 C-2.33 11.01 -2.66 10.02 -3 9 C-2.44140625 6.73828125 -2.44140625 6.73828125 -1.5625 4.3125 C-1.27503906 3.50425781 -0.98757813 2.69601563 -0.69140625 1.86328125 C-0.34916016 0.94095703 -0.34916016 0.94095703 0 0 Z " fill="#2F3942" transform="translate(280,246)"/>
<path d="M0 0 C0.33 0 0.66 0 1 0 C1.0994692 4.42905723 1.17174818 8.85750909 1.21972656 13.28735352 C1.23974363 14.79170062 1.26696627 16.29597089 1.30175781 17.80004883 C1.35071945 19.97236162 1.37306653 22.14363906 1.390625 24.31640625 C1.41157227 25.62037354 1.43251953 26.92434082 1.45410156 28.26782227 C0.89882326 32.83155316 -0.50523867 35.18664077 -3 39 C-3.66 39 -4.32 39 -5 39 C-4.72285156 38.11183594 -4.44570313 37.22367187 -4.16015625 36.30859375 C-0.66842287 24.28934269 -0.19003713 12.46381471 0 0 Z " fill="#909397" transform="translate(313,223)"/>
<path d="M0 0 C0 1.33333333 0 2.66666667 0 4 C-5.94 4 -11.88 4 -18 4 C-12.83747822 -1.16252178 -6.92913889 -0.12109175 0 0 Z " fill="#061216" transform="translate(322,350)"/>
<path d="M0 0 C0 0.99 0 1.98 0 3 C-1.9667262 4.93160609 -4.08957768 6.57091566 -6.25 8.28125 C-6.8275 8.8484375 -7.405 9.415625 -8 10 C-8 10.99 -8 11.98 -8 13 C-12.3164922 13.76173392 -15.74433453 14.16063604 -20 13 C-17.10709529 11.07139686 -14.26405484 9.67091868 -11.125 8.1875 C-6.55011393 5.93328858 -3.23374359 3.92668865 0 0 Z " fill="#6A6E6B" transform="translate(241,241)"/>
<path d="M0 0 C0.66 0.66 1.32 1.32 2 2 C0.68 3.32 -0.64 4.64 -2 6 C-1.34 6 -0.68 6 0 6 C0.33 6.99 0.66 7.98 1 9 C-2.21451269 10.60725635 -5.43612536 10.05748185 -9 10 C-6.68116787 5.49115974 -3.93548431 3.06093224 0 0 Z " fill="#050A10" transform="translate(292,286)"/>
<path d="M0 0 C0.94356071 3.4258512 1.19930768 5.57340662 0 9 C-2.0625 11 -2.0625 11 -5 13 C-5.67289062 13.46019531 -6.34578125 13.92039062 -7.0390625 14.39453125 C-11.13798762 17.09982183 -11.13798762 17.09982183 -13 18 C-13.66 17.67 -14.32 17.34 -15 17 C-14.25556641 16.54173828 -14.25556641 16.54173828 -13.49609375 16.07421875 C-7.16956199 11.8125133 -3.7395481 6.56758136 0 0 Z " fill="#888987" transform="translate(387,290)"/>
<path d="M0 0 C1.13864162 3.41592487 0.84292788 4.21442309 -0.3125 7.5 C-0.57675781 8.2734375 -0.84101563 9.046875 -1.11328125 9.84375 C-2 12 -2 12 -4 15 C-3.95875 14.071875 -3.9175 13.14375 -3.875 12.1875 C-3.72863661 8.84190281 -3.72863661 8.84190281 -6 6 C-5.125 3.3125 -5.125 3.3125 -4 1 C-2.68 1.33 -1.36 1.66 0 2 C0 1.34 0 0.68 0 0 Z " fill="#464E55" transform="translate(288,233)"/>
<path d="M0 0 C0.66 0 1.32 0 2 0 C2.33 1.98 2.66 3.96 3 6 C1.68 5.01 0.36 4.02 -1 3 C-0.01 6.3 0.98 9.6 2 13 C0.68 13 -0.64 13 -2 13 C-3.80411967 10.24075815 -4.0127245 9.11027897 -3.625 5.75 C-3.41875 4.8425 -3.2125 3.935 -3 3 C-2.01 2.67 -1.02 2.34 0 2 C0 1.34 0 0.68 0 0 Z " fill="#22292E" transform="translate(284,154)"/>
<path d="M0 0 C1.093125 0.185625 2.18625 0.37125 3.3125 0.5625 C6.93624133 1.2578068 6.93624133 1.2578068 10 0 C10 0.66 10 1.32 10 2 C9.34 2 8.68 2 8 2 C8 2.66 8 3.32 8 4 C7.34 4 6.68 4 6 4 C5.731875 4.9075 5.46375 5.815 5.1875 6.75 C4.10423706 9.71471963 3.01640543 11.6169754 1 14 C1.33 11.03 1.66 8.06 2 5 C1.01 5 0.02 5 -1 5 C-0.67 3.35 -0.34 1.7 0 0 Z " fill="#07111A" transform="translate(397,52)"/>
<path d="M0 0 C5.28 0 10.56 0 16 0 C16 0.33 16 0.66 16 1 C15.39671875 1.02578125 14.7934375 1.0515625 14.171875 1.078125 C8.96991126 1.36631237 8.96991126 1.36631237 4.625 4 C4.08875 4.66 3.5525 5.32 3 6 C2.01 6.33 1.02 6.66 0 7 C0 4.69 0 2.38 0 0 Z " fill="#060A0E" transform="translate(145,49)"/>
<path d="M0 0 C0.33 0.66 0.66 1.32 1 2 C0.67 2.66 0.34 3.32 0 4 C0.61875 3.814375 1.2375 3.62875 1.875 3.4375 C4 3 4 3 6 4 C5.67 4.66 5.34 5.32 5 6 C3.35 6 1.7 6 0 6 C0 6.66 0 7.32 0 8 C-1.98 8 -3.96 8 -6 8 C-6.33 7.34 -6.66 6.68 -7 6 C-4.69 4.02 -2.38 2.04 0 0 Z " fill="#0A171E" transform="translate(301,288)"/>
<path d="M0 0 C-0.99 0.495 -0.99 0.495 -2 1 C-2.68449219 0.69320312 -3.36898438 0.38640625 -4.07421875 0.0703125 C-8.04645479 -1.38281524 -11.62290674 -1.21630715 -15.8125 -1.125 C-16.60076172 -1.11597656 -17.38902344 -1.10695312 -18.20117188 -1.09765625 C-20.13424666 -1.07422504 -22.0671638 -1.03835838 -24 -1 C-16.4668011 -7.18798481 -7.96398484 -4.61072807 0 0 Z " fill="#919798" transform="translate(427,47)"/>
<path d="M0 0 C1.42600325 4.27800976 -0.54362936 6.86765922 -2.4375 10.6875 C-2.77587891 11.38939453 -3.11425781 12.09128906 -3.46289062 12.81445312 C-4.29981348 14.54723706 -5.14877393 16.27419752 -6 18 C-6.66 17.67 -7.32 17.34 -8 17 C-7.745504 15.51793505 -7.47088238 14.03931385 -7.1875 12.5625 C-7.03667969 11.73878906 -6.88585937 10.91507812 -6.73046875 10.06640625 C-6.48941406 9.38449219 -6.24835938 8.70257813 -6 8 C-5.01 7.67 -4.02 7.34 -3 7 C-2.67 5.35 -2.34 3.7 -2 2 C-1.34 2 -0.68 2 0 2 C0 1.34 0 0.68 0 0 Z " fill="#7F868C" transform="translate(353,258)"/>
<path d="M0 0 C1 2 1 2 0.328125 4.27734375 C-0.02765625 5.15519531 -0.3834375 6.03304688 -0.75 6.9375 C-1.26820313 8.25041016 -1.26820313 8.25041016 -1.796875 9.58984375 C-2.95642525 11.91270902 -4.05798473 13.30910739 -6 15 C-6.125 7.25 -6.125 7.25 -5 5 C-4.01 5 -3.02 5 -2 5 C-2 3.68 -2 2.36 -2 1 C-1.34 0.67 -0.68 0.34 0 0 Z " fill="#515763" transform="translate(429,297)"/>
<path d="M0 0 C-2.82229513 1.88153009 -5.27890171 3.00034705 -8.4375 4.1875 C-9.85869141 4.73470703 -9.85869141 4.73470703 -11.30859375 5.29296875 C-14.07083217 6.01860758 -15.36366738 5.97849698 -18 5 C-15.6875 3.4375 -15.6875 3.4375 -13 2 C-12.01 2.33 -11.02 2.66 -10 3 C-10 2.34 -10 1.68 -10 1 C-6.21812119 -0.83691257 -4.05431692 -1.15837626 0 0 Z " fill="#4D5456" transform="translate(383,345)"/>
<path d="M0 0 C3.3 0 6.6 0 10 0 C7.46963112 3.79555331 5.21925236 4.4455386 1 6 C0.01 6 -0.98 6 -2 6 C-1.49396008 3.83125748 -1.00016187 2.00032373 0 0 Z " fill="#5E6567" transform="translate(320,291)"/>
<path d="M0 0 C0.66 1.32 1.32 2.64 2 4 C-1.28804981 6.91227269 -3.59885603 8.49701212 -8 9 C-8.33 8.01 -8.66 7.02 -9 6 C-6 6 -6 6 -4 7 C-4 5.35 -4 3.7 -4 2 C-2.68 1.34 -1.36 0.68 0 0 Z " fill="#323C3E" transform="translate(395,334)"/>
<path d="M0 0 C-2.39323804 2.39323804 -3.73148638 2.44196109 -7 3 C-10.11785113 3.64644661 -10.11785113 3.64644661 -11 6 C-11.99 5.67 -12.98 5.34 -14 5 C-14.33 5.66 -14.66 6.32 -15 7 C-15 4 -15 4 -13.75 2.375 C-9.70194857 -0.80561183 -4.915063 -0.08191772 0 0 Z " fill="#07090B" transform="translate(415,45)"/>
<path d="M0 0 C0.66 0.66 1.32 1.32 2 2 C3.31747324 2.69748583 4.64914193 3.36959957 6 4 C3 6 3 6 0 6 C0 6.66 0 7.32 0 8 C-1.98 8.33 -3.96 8.66 -6 9 C-4.68 8.01 -3.36 7.02 -2 6 C-2.33 4.68 -2.66 3.36 -3 2 C-2.01 1.34 -1.02 0.68 0 0 Z " fill="#464E54" transform="translate(248,279)"/>
<path d="M0 0 C1.67786493 2.15725491 3.10315841 4.19693879 4.375 6.625 C5.8161702 9.21564263 5.8161702 9.21564263 8.625 10 C9.40875 10.33 10.1925 10.66 11 11 C11.8125 13.625 11.8125 13.625 12 16 C8.90989789 14.64891639 7.03089847 13.20982067 4.875 10.625 C4.12863281 9.74714844 4.12863281 9.74714844 3.3671875 8.8515625 C1.12378822 5.8133589 0 3.82244029 0 0 Z " fill="#8C9091" transform="translate(392,69)"/>
<path d="M0 0 C2.9719385 1.12451727 5.33440687 2.22293791 8 4 C1.4 4 -5.2 4 -12 4 C-12 3.67 -12 3.34 -12 3 C-8.04 3 -4.08 3 0 3 C0 2.01 0 1.02 0 0 Z " fill="#0E151C" transform="translate(159,350)"/>
<path d="M0 0 C0.33 0.99 0.66 1.98 1 3 C-0.61594832 5.04119788 -2.2856382 7.04072937 -4 9 C-4.33 9.99 -4.66 10.98 -5 12 C-5.66 11.67 -6.32 11.34 -7 11 C-6.34 8.69 -5.68 6.38 -5 4 C-4.01 4 -3.02 4 -2 4 C-2.33 3.01 -2.66 2.02 -3 1 C-2.01 0.67 -1.02 0.34 0 0 Z " fill="#646D74" transform="translate(280,254)"/>
<path d="M0 0 C0.66 0.99 1.32 1.98 2 3 C-0.64 5.64 -3.28 8.28 -6 11 C-6.33 9.68 -6.66 8.36 -7 7 C-6.01 7 -5.02 7 -4 7 C-4 6.01 -4 5.02 -4 4 C-3.34 4 -2.68 4 -2 4 C-2 3.34 -2 2.68 -2 2 C-1.34 2 -0.68 2 0 2 C0 1.34 0 0.68 0 0 Z " fill="#60656B" transform="translate(415,319)"/>
<path d="M0 0 C5.28 0 10.56 0 16 0 C16 0.33 16 0.66 16 1 C15.43152344 1.06058594 14.86304688 1.12117188 14.27734375 1.18359375 C9.50218963 1.70176573 4.7507695 2.29243859 0 3 C0 2.01 0 1.02 0 0 Z " fill="#27333C" transform="translate(412,114)"/>
<path d="M0 0 C0 3 0 3 -1.53125 4.82421875 C-2.1809375 5.43910156 -2.830625 6.05398438 -3.5 6.6875 C-4.1496875 7.31011719 -4.799375 7.93273437 -5.46875 8.57421875 C-5.9740625 9.04472656 -6.479375 9.51523437 -7 10 C-7.5703125 8.09765625 -7.5703125 8.09765625 -8 6 C-5.96727569 3.1767718 -2.98590998 1.69470567 0 0 Z " fill="#6A7076" transform="translate(343,278)"/>
<path d="M0 0 C0.66 0.33 1.32 0.66 2 1 C3.87056791 1.2275015 5.74685958 1.40962811 7.625 1.5625 C8.62789063 1.64628906 9.63078125 1.73007813 10.6640625 1.81640625 C11.43492187 1.87699219 12.20578125 1.93757813 13 2 C9.15511769 4.12015392 6.41415166 4.30976503 2 4 C-0.9375 3 -0.9375 3 -3 2 C-2.01 1.34 -1.02 0.68 0 0 Z " fill="#818485" transform="translate(407,84)"/>
<path d="M0 0 C2.2109885 0.42793326 3.98119242 0.99059621 6 2 C6 2.66 6 3.32 6 4 C3.23735711 4.59732819 0.83967231 5 -2 5 C-1.125 1.125 -1.125 1.125 0 0 Z " fill="#030C12" transform="translate(367,344)"/>
<path d="M0 0 C0.66 0.33 1.32 0.66 2 1 C1.67 1.99 1.34 2.98 1 4 C0.34 4 -0.32 4 -1 4 C-1 4.66 -1 5.32 -1 6 C-2.98 6.66 -4.96 7.32 -7 8 C-6.67 7.01 -6.34 6.02 -6 5 C-5.34 5.33 -4.68 5.66 -4 6 C-4 5.01 -4 4.02 -4 3 C-2.68 2.67 -1.36 2.34 0 2 C0 1.34 0 0.68 0 0 Z " fill="#575E62" transform="translate(427,78)"/>
<path d="M0 0 C2.1519437 3.22791555 2.20086443 4.28400809 2 8 C0.0625 7.625 0.0625 7.625 -2 7 C-2.33 6.34 -2.66 5.68 -3 5 C-2.67 4.01 -2.34 3.02 -2 2 C-1.34 2 -0.68 2 0 2 C0 1.34 0 0.68 0 0 Z " fill="#0B131A" transform="translate(399,71)"/>
<path d="M0 0 C3.63 0 7.26 0 11 0 C10.67 0.99 10.34 1.98 10 3 C6.7 2.67 3.4 2.34 0 2 C0 1.34 0 0.68 0 0 Z " fill="#303D47" transform="translate(336,56)"/>
<path d="M0 0 C0.75 1.5625 0.75 1.5625 1 4 C-0.13084437 6.50286409 -1.52139516 8.67007722 -3 11 C-3.66 11 -4.32 11 -5 11 C-3.92289822 6.69159287 -2.96052484 3.36423277 0 0 Z " fill="#525453" transform="translate(313,251)"/>
<path d="M0 0 C0.99 0.33 1.98 0.66 3 1 C3.33 3.31 3.66 5.62 4 8 C3.01 8.495 3.01 8.495 2 9 C0.50178941 5.62902617 0 3.79557881 0 0 Z " fill="#050A0C" transform="translate(283,157)"/>
<path d="M0 0 C4.455 0.99 4.455 0.99 9 2 C9 2.33 9 2.66 9 3 C5.37 3 1.74 3 -2 3 C-1.34 2.01 -0.68 1.02 0 0 Z M9 0 C9.99 0.495 9.99 0.495 11 1 C10.01 1.495 10.01 1.495 9 2 C9 1.34 9 0.68 9 0 Z " fill="#091218" transform="translate(239,350)"/>
<path d="M0 0 C0.33 1.32 0.66 2.64 1 4 C-1.31 4.33 -3.62 4.66 -6 5 C-6 4.34 -6 3.68 -6 3 C-2.53846154 0 -2.53846154 0 0 0 Z " fill="#0E191F" transform="translate(329,287)"/>
<path d="M0 0 C0.99 0 1.98 0 3 0 C2.1875 3.4375 2.1875 3.4375 1 7 C0.01 7.33 -0.98 7.66 -2 8 C-2.20086443 4.28400809 -2.1519437 3.22791555 0 0 Z " fill="#4A4C4F" transform="translate(394,272)"/>
<path d="M0 0 C0.66 0 1.32 0 2 0 C2 0.66 2 1.32 2 2 C2.99 1.67 3.98 1.34 5 1 C4.67 1.99 4.34 2.98 4 4 C3.34 4 2.68 4 2 4 C1.67 4.99 1.34 5.98 1 7 C0.34 6.67 -0.32 6.34 -1 6 C-0.34 5.01 0.32 4.02 1 3 C0.01 3.33 -0.98 3.66 -2 4 C-1.34 2.68 -0.68 1.36 0 0 Z " fill="#60676D" transform="translate(264,269)"/>
<path d="M0 0 C0.66 0 1.32 0 2 0 C1.67 1.65 1.34 3.3 1 5 C-0.32 5.33 -1.64 5.66 -3 6 C-3 5.34 -3 4.68 -3 4 C-2.34 4 -1.68 4 -1 4 C-0.67 2.68 -0.34 1.36 0 0 Z M-5 5 C-3 7 -3 7 -3 9 C-3.66 9 -4.32 9 -5 9 C-5 7.68 -5 6.36 -5 5 Z " fill="#0B1119" transform="translate(422,307)"/>
<path d="M0 0 C0.66 0.33 1.32 0.66 2 1 C1.34 3.31 0.68 5.62 0 8 C-0.99 8 -1.98 8 -3 8 C-2.34 6.68 -1.68 5.36 -1 4 C-1.66 3.67 -2.32 3.34 -3 3 C-3 2.34 -3 1.68 -3 1 C-2.01 0.67 -1.02 0.34 0 0 Z " fill="#16222B" transform="translate(342,272)"/>
<path d="M0 0 C0.66 0.33 1.32 0.66 2 1 C1.67 1.99 1.34 2.98 1 4 C-2.3 4 -5.6 4 -9 4 C-6.00084818 2.50042409 -3.16379181 1.08234983 0 0 Z " fill="#141B20" transform="translate(317,293)"/>
<path d="M0 0 C0.33 0.66 0.66 1.32 1 2 C0.67 2.66 0.34 3.32 0 4 C0.61875 3.814375 1.2375 3.62875 1.875 3.4375 C4 3 4 3 6 4 C5.67 4.66 5.34 5.32 5 6 C2.36 6 -0.28 6 -3 6 C-2.01 4.02 -1.02 2.04 0 0 Z " fill="#121F29" transform="translate(301,288)"/>
<path d="M0 0 C0 3.20395416 -0.74335022 5.09399739 -2 8 C-2.99 6.68 -3.98 5.36 -5 4 C-3.36587557 2.29159719 -2.13093906 1.06546953 0 0 Z " fill="#081118" transform="translate(277,142)"/>
<path d="M0 0 C0.66 0.66 1.32 1.32 2 2 C1.625 4.625 1.625 4.625 1 7 C0.01 6.67 -0.98 6.34 -2 6 C-1.125 1.125 -1.125 1.125 0 0 Z " fill="#19262E" transform="translate(349,259)"/>
<path d="M0 0 C0.68707555 2.49064888 1 4.37886292 1 7 C0.01 7 -0.98 7 -2 7 C-2.33 7.66 -2.66 8.32 -3 9 C-2.44271087 5.65626525 -1.64826111 2.96687001 0 0 Z " fill="#15202A" transform="translate(277,251)"/>
<path d="M0 0 C5.75 0.75 5.75 0.75 8 3 C4.89953913 4.03348696 3.94389782 4.17755913 1 3 C0.67 2.01 0.34 1.02 0 0 Z " fill="#0E191F" transform="translate(402,81)"/>
<path d="M0 0 C0.33 0 0.66 0 1 0 C0.67 2.31 0.34 4.62 0 7 C-0.99 6.67 -1.98 6.34 -3 6 C-2.42655063 3.13275314 -2.1385485 2.1385485 0 0 Z " fill="#14212A" transform="translate(273,260)"/>
<path d="M0 0 C0.33 0 0.66 0 1 0 C1.0270043 1.45823212 1.04639787 2.91660675 1.0625 4.375 C1.07410156 5.18710938 1.08570313 5.99921875 1.09765625 6.8359375 C1 9 1 9 0 11 C-0.99 11 -1.98 11 -3 11 C-2.690625 10.484375 -2.38125 9.96875 -2.0625 9.4375 C-0.70940713 6.33334577 -0.38640576 3.34884993 0 0 Z " fill="#4A5055" transform="translate(354,247)"/>
<path d="M0 0 C2.64 0 5.28 0 8 0 C8 0.99 8 1.98 8 3 C5.36 2.67 2.72 2.34 0 2 C0 1.34 0 0.68 0 0 Z " fill="#323C46" transform="translate(214,114)"/>
<path d="M0 0 C1.32 0 2.64 0 4 0 C4 0.99 4 1.98 4 3 C2.35 3.33 0.7 3.66 -1 4 C-0.67 2.68 -0.34 1.36 0 0 Z " fill="#4C5153" transform="translate(319,293)"/>
<path d="M0 0 C2.97 0.495 2.97 0.495 6 1 C6 1.66 6 2.32 6 3 C3.35261084 4.4606285 2.10551666 5 -1 5 C-0.67 3.35 -0.34 1.7 0 0 Z " fill="#03070A" transform="translate(397,52)"/>
<path d="" fill="#FFFFFF" transform="translate(0,0)"/>
<path d="" fill="#FFFFFF" transform="translate(0,0)"/>
<path d="" fill="#FFFFFF" transform="translate(0,0)"/>
<path d="" fill="#FFFFFF" transform="translate(0,0)"/>
<path d="" fill="#FFFFFF" transform="translate(0,0)"/>
<path d="" fill="#FFFFFF" transform="translate(0,0)"/>
<path d="" fill="#FFFFFF" transform="translate(0,0)"/>
<path d="" fill="#FFFFFF" transform="translate(0,0)"/>
<path d="" fill="#FFFFFF" transform="translate(0,0)"/>
<path d="" fill="#FFFFFF" transform="translate(0,0)"/>
<path d="" fill="#FFFFFF" transform="translate(0,0)"/>
<path d="" fill="#FFFFFF" transform="translate(0,0)"/>
<path d="" fill="#FFFFFF" transform="translate(0,0)"/>
<path d="" fill="#FFFFFF" transform="translate(0,0)"/>
<path d="" fill="#FFFFFF" transform="translate(0,0)"/>
<path d="" fill="#FFFFFF" transform="translate(0,0)"/>
<path d="" fill="#FFFFFF" transform="translate(0,0)"/>
<path d="" fill="#FFFFFF" transform="translate(0,0)"/>
<path d="" fill="#FFFFFF" transform="translate(0,0)"/>
<path d="" fill="#FFFFFF" transform="translate(0,0)"/>
<path d="" fill="#FFFFFF" transform="translate(0,0)"/>
<path d="" fill="#FFFFFF" transform="translate(0,0)"/>
<path d="" fill="#FFFFFF" transform="translate(0,0)"/>
<path d="" fill="#FFFFFF" transform="translate(0,0)"/>
<path d="" fill="#FFFFFF" transform="translate(0,0)"/>
<path d="" fill="#FFFFFF" transform="translate(0,0)"/>
<path d="" fill="#FFFFFF" transform="translate(0,0)"/>
<path d="" fill="#FFFFFF" transform="translate(0,0)"/>
<path d="" fill="#FFFFFF" transform="translate(0,0)"/>
<path d="" fill="#FFFFFF" transform="translate(0,0)"/>
<path d="" fill="#FFFFFF" transform="translate(0,0)"/>
<path d="" fill="#FFFFFF" transform="translate(0,0)"/>
<path d="" fill="#FFFFFF" transform="translate(0,0)"/>
<path d="" fill="#FFFFFF" transform="translate(0,0)"/>
<path d="" fill="#FFFFFF" transform="translate(0,0)"/>
<path d="" fill="#FFFFFF" transform="translate(0,0)"/>
<path d="" fill="#FFFFFF" transform="translate(0,0)"/>
<path d="" fill="#FFFFFF" transform="translate(0,0)"/>
<path d="" fill="#FFFFFF" transform="translate(0,0)"/>
<path d="" fill="#FFFFFF" transform="translate(0,0)"/>
<path d="" fill="#FFFFFF" transform="translate(0,0)"/>
<path d="" fill="#FFFFFF" transform="translate(0,0)"/>
<path d="" fill="#FFFFFF" transform="translate(0,0)"/>
<path d="" fill="#FFFFFF" transform="translate(0,0)"/>
<path d="" fill="#FFFFFF" transform="translate(0,0)"/>
<path d="" fill="#FFFFFF" transform="translate(0,0)"/>
<path d="" fill="#FFFFFF" transform="translate(0,0)"/>
<path d="" fill="#FFFFFF" transform="translate(0,0)"/>
<path d="" fill="#FFFFFF" transform="translate(0,0)"/>
<path d="" fill="#FFFFFF" transform="translate(0,0)"/>
<path d="" fill="#FFFFFF" transform="translate(0,0)"/>
<path d="" fill="#FFFFFF" transform="translate(0,0)"/>
<path d="" fill="#FFFFFF" transform="translate(0,0)"/>
<path d="" fill="#FFFFFF" transform="translate(0,0)"/>
<path d="" fill="#FFFFFF" transform="translate(0,0)"/>
<path d="" fill="#FFFFFF" transform="translate(0,0)"/>
<path d="" fill="#FFFFFF" transform="translate(0,0)"/>
<path d="" fill="#FFFFFF" transform="translate(0,0)"/>
<path d="" fill="#FFFFFF" transform="translate(0,0)"/>
<path d="" fill="#FFFFFF" transform="translate(0,0)"/>
<path d="" fill="#FFFFFF" transform="translate(0,0)"/>
<path d="" fill="#FFFFFF" transform="translate(0,0)"/>
<path d="" fill="#FFFFFF" transform="translate(0,0)"/>
<path d="" fill="#FFFFFF" transform="translate(0,0)"/>
</svg>
